<?xml version="1.0" encoding="UTF-8" standalone="no"?>
<!-- Created with Inkscape (http://www.inkscape.org/) -->

<svg
   version="1.1"
   id="svg2"
   width="1080"
   height="1080"
   viewBox="0 0 1080 1080"
   sodipodi:docname="banner-house.svg"
   inkscape:version="1.2.2 (732a01da63, 2022-12-09)"
   xmlns:inkscape="http://www.inkscape.org/namespaces/inkscape"
   xmlns:sodipodi="http://sodipodi.sourceforge.net/DTD/sodipodi-0.dtd"
   xmlns="http://www.w3.org/2000/svg"
   xmlns:svg="http://www.w3.org/2000/svg">
  <defs
     id="defs6" />
  <sodipodi:namedview
     id="namedview4"
     pagecolor="#505050"
     bordercolor="#eeeeee"
     borderopacity="1"
     inkscape:showpageshadow="0"
     inkscape:pageopacity="0"
     inkscape:pagecheckerboard="0"
     inkscape:deskcolor="#505050"
     showgrid="false"
     inkscape:zoom="0.70710678"
     inkscape:cx="287.08535"
     inkscape:cy="511.94531"
     inkscape:window-width="2560"
     inkscape:window-height="1017"
     inkscape:window-x="-8"
     inkscape:window-y="-8"
     inkscape:window-maximized="1"
     inkscape:current-layer="g8" />
  <g
     inkscape:groupmode="layer"
     inkscape:label="Image"
     id="g8">
    <path
       style="fill:#000000;stroke-width:1.64217"
       d="m 752.12788,1072.2867 c -64.58099,-5.9694 -114.73661,-19.0593 -126.47334,-33.0076 -7.64507,-9.0857 -5.16467,-17.3395 10.28345,-34.2195 15.30811,-16.727 14.20423,-17.91648 -27.46742,-29.59721 -25.9435,-7.27207 -33.99237,-11.18916 -35.523,-17.2877 -1.51514,-6.03674 2.73778,-10.98158 16.9508,-19.70857 7.03561,-4.31998 13.08209,-8.06779 13.43658,-8.32846 0.35451,-0.2607 -0.15814,-1.44113 -1.13912,-2.62317 -0.98102,-1.18207 -2.01005,-6.55751 -2.28673,-11.94543 l -0.50304,-9.79622 -14.77953,-1.10933 c -8.12875,-0.61015 -18.84391,-1.59688 -23.81147,-2.19276 -7.3412,-0.88059 -8.64768,-0.68831 -6.97922,1.02722 1.12899,1.16087 2.05271,3.05234 2.05271,4.2033 0,3.48213 -9.72905,7.4603 -16.63446,6.80176 -5.90666,-0.56328 -6.35591,-0.3041 -6.35591,3.66698 0,4.31674 -4.39373,9.46082 -10.97669,12.85127 -4.46358,2.29888 -19.16328,2.39958 -26.80406,0.18361 -3.15522,-0.91508 -8.81876,-1.20945 -12.58566,-0.65418 -6.64877,0.98009 -6.8238,1.16427 -5.98991,6.30277 0.73003,4.49876 0.0424,5.98026 -4.58209,9.87149 -4.84915,4.0803 -6.34122,4.47645 -13.7161,3.64175 -4.5513,-0.51513 -14.1869,-1.40771 -21.41244,-1.98353 l -13.13736,-1.04696 8.21085,7.02888 c 4.51596,3.86589 12.09047,10.94065 16.83224,15.72172 7.79619,7.86079 8.62139,9.38951 8.62139,15.9715 0,6.19239 -0.79466,7.94732 -5.32472,11.75911 -17.52169,14.74356 -65.38989,22.56566 -115.68162,18.90346 -55.45285,-4.0381 -108.54278,-13.1155 -174.58426,-29.85061 -88.848479,-22.5145 -128.089266,-39.63517 -128.089266,-55.8851 0,-13.56864 24.335052,-22.26268 91.140446,-32.56123 44.90746,-6.92283 76.803,-13.32376 83.34012,-16.72506 4.87022,-2.534 3.28148,-5.67053 -7.80031,-15.39982 -5.88514,-5.16685 -10.6741,-10.72897 -10.6741,-12.39737 0,-8.35642 19.22802,-11.30761 80.46633,-12.35022 27.5474,-0.469 50.88945,-1.10594 51.87124,-1.4154 4.22982,-1.33324 -0.92597,-174.26189 -6.78252,-227.49061 -1.34158,-12.19312 -2.42866,-24.84922 -2.41577,-28.12469 l 0.0234,-5.95536 -15.38374,-1.93636 c -8.46106,-1.06499 -19.36096,-2.9949 -24.22201,-4.2887 -4.86104,-1.29379 -11.42468,-2.40429 -14.58586,-2.46779 -3.16117,-0.0635 -11.23159,-2.17563 -17.93426,-4.69364 -16.06133,-6.03379 -17.63912,-9.48247 -8.6574,-18.92299 5.75879,-6.05296 39.97896,-45.62339 52.07541,-60.21729 5.49453,-6.62894 33.50307,-40.20967 45.06617,-54.0319 6.30899,-7.54162 30.22474,-37.53633 34.81087,-43.65916 1.56485,-2.08922 -5.72835,-56.73943 -13.61826,-102.04554 -1.6613,-9.53975 -2.003,-10.1067 -5.09403,-8.45243 -5.78525,3.09617 -10.48481,-0.50452 -12.43325,-9.52603 -6.41703,-29.71179 -6.32855,-31.76932 1.47288,-34.24541 4.61054,-1.46333 3.81799,-2.88376 -3.48895,-6.25297 -7.68959,-3.54567 -14.72322,-14.22152 -14.72322,-22.34738 0,-4.48741 -0.47163,-5.16625 -2.8738,-4.13636 -16.94332,7.26423 -29.56046,7.02179 -41.90223,-0.80514 -16.64252,-10.55436 -23.09351,-28.23379 -16.80535,-46.05633 1.35479,-3.83989 2.46325,-7.62768 2.46325,-8.41732 0,-2.44078 -9.74469,-1.58239 -14.04838,1.2375 -5.44584,3.56825 -17.68149,2.22975 -22.69799,-2.48301 -2.03415,-1.911 -5.56848,-3.47453 -7.85407,-3.47453 -7.13788,0 -12.65265,-9.09836 -9.27927,-15.30904 1.06826,-1.96676 2.12963,-6.90132 2.3586,-10.96569 1.24603,-22.118009 1.44604,-23.227767 4.49403,-24.933424 3.80356,-2.128511 6.76176,-5.436219 11.5399,-12.903441 l 3.72064,-5.814539 -3.65048,-2.753562 c -4.71326,-3.555216 -10.56373,-15.668396 -10.56373,-21.871809 0,-6.56173 9.34006,-20.207436 16.42169,-23.99192 3.75046,-2.004277 8.31535,-2.912504 13.13737,-2.613822 6.58752,0.408039 7.71247,-0.05456 10.36252,-4.260655 2.74951,-4.364051 3.55108,-4.653003 10.6741,-3.847851 5.38041,0.608178 9.03046,0.08646 12.1116,-1.73136 3.72668,-2.1986283 5.44574,-2.2916531 11.09127,-0.6002096 3.67458,1.1009276 7.79074,3.6952776 9.14701,5.7652246 2.43596,3.717741 2.58237,3.733198 12.03494,1.270497 8.70909,-2.269002 10.57867,-2.243853 20.80551,0.279863 6.18011,1.5251 12.59221,3.999748 14.2491,5.49923 2.57469,2.330054 3.595,2.414618 7.01961,0.581833 3.21007,-1.717985 4.97525,-1.743455 8.87509,-0.128077 4.59505,1.903332 5.2244,1.660098 11.22155,-4.337054 8.61649,-8.616503 17.41333,-12.5126955 28.40186,-12.5794128 20.63225,-0.1252935 40.87941,18.7740438 41.09263,38.3571688 0.0325,2.994665 1.47262,4.771879 5.32237,6.568689 3.89716,1.818916 5.62783,3.985645 6.61633,8.283298 l 1.33863,5.820044 11.00146,0.06158 c 13.4935,0.0755 24.26128,4.747591 32.13092,13.941506 12.92891,15.104533 12.42584,42.679633 -1.01407,55.582733 -3.78275,3.63165 -3.97643,4.38033 -1.90018,7.34461 3.3568,4.7925 2.88742,13.03532 -0.93951,16.49864 -3.20386,2.89946 -3.14754,3.00844 3.84839,7.44511 8.20931,5.20619 14.43178,14.31857 14.91074,21.83573 0.33925,5.32477 0.78714,5.57418 6.76591,3.768 3.39668,-1.02612 6.72312,1.06824 63.94032,40.25726 73.5146,50.35139 96.02284,64.57787 125.95505,79.61073 18.35481,9.21834 47.70213,19.05732 67.82102,22.73767 8.12874,1.48699 15.97839,3.05856 17.44364,3.49238 1.46527,0.43379 14.70726,20.90599 29.42666,45.49376 14.71939,24.58777 31.21878,50.98633 36.6653,58.66347 20.11127,28.3478 58.84487,74.18192 105.02371,124.27628 3.54736,3.84815 4.55505,6.23881 3.83648,9.10178 -1.06309,4.23566 -11.10453,8.08507 -35.73785,13.70016 l -12.48557,2.84604 -7.64842,28.08404 c -4.20662,15.44622 -9.48574,36.34343 -11.73136,46.43821 -2.24561,10.0948 -4.83009,20.31933 -5.74328,22.72121 -2.20048,5.78773 -6.56066,51.88467 -6.56066,69.3611 0,12.12231 0.43257,14.19228 3.48173,16.66135 3.3331,2.69897 3.52587,4.63636 4.51596,45.38342 l 1.03425,42.56411 4.92651,0.2871 c 2.70958,0.1578 14.16372,0.7338 25.45363,1.27977 42.49242,2.05491 72.37428,10.06879 91.82465,24.62601 12.8468,9.61504 14.9939,19.59275 6.0342,28.04282 -6.5294,6.15802 -14.3985,9.44846 -47.23662,19.75206 -13.25309,4.15841 -24.94142,8.57878 -25.97407,9.82306 -2.67743,3.22611 2.13214,5.98305 25.55465,14.6484 48.27094,17.8582 62.31194,24.91937 68.17144,34.28313 4.2765,6.83404 3.1657,14.84714 -2.9502,21.28224 -12.6975,13.3603 -76.27836,35.1511 -133.48791,45.7497 -53.81666,9.97 -111.80029,13.5253 -155.18508,9.515 z m 102.51502,-10.5261 c 29.22017,-3.4605 78.65829,-11.8369 97.82972,-16.5756 37.93419,-9.3763 77.42588,-25.6018 84.64238,-34.7761 3.4768,-4.4201 3.083,-8.8654 -1.2203,-13.77333 -4.2893,-4.89193 -23.7296,-13.95153 -50.57868,-23.57077 -29.36845,-10.52184 -38.08013,-14.50517 -42.28587,-19.33475 -3.33165,-3.82584 -3.4947,-5.13766 -1.17672,-9.46881 2.48971,-4.65206 11.50222,-8.71362 36.08168,-16.26049 43.07729,-13.22644 49.59499,-18.6099 36.95909,-30.52711 -8.6637,-8.17084 -29.2969,-17.11466 -47.40849,-20.54997 -18.11904,-3.43672 -42.26019,-6.63153 -57.29897,-7.58292 l -16.01116,-1.01286 v 8.25783 c 0,4.85085 -0.89742,9.00264 -2.17516,10.06307 -1.19634,0.99289 -7.44667,2.91413 -13.88961,4.26944 -6.44294,1.35532 -21.90635,5.39866 -34.36312,8.98524 -12.45677,3.58655 -51.09927,14.58695 -85.87222,24.44532 l -63.22355,17.92432 -24.63254,-2.96888 c -13.5479,-1.63289 -30.17488,-3.75377 -36.94883,-4.71309 -20.48156,-2.90054 -24.45532,-2.41222 -34.50749,4.24054 -9.63753,6.37832 -19.68412,15.21183 -19.68412,17.30732 0,0.70282 2.19806,2.41452 4.8846,3.80377 4.3513,2.25016 11.43937,4.38144 44.24919,13.3052 11.3648,3.09104 20.60357,8.28605 23.12954,13.00585 3.27345,6.11653 0.42068,12.86419 -10.62259,25.12558 -12.77807,14.1875 -13.98496,17.2737 -8.88003,22.7076 10.16807,10.8234 46.27523,20.4316 106.52978,28.3476 18.46812,2.4262 93.98459,1.9893 116.47347,-0.674 z m -442.06323,-56.5778 c 17.96998,-3.8241 29.88696,-8.65367 35.13348,-14.23833 3.54721,-3.77584 3.64351,-4.36728 1.37032,-8.41724 -1.34474,-2.39583 -9.29606,-10.30001 -17.66961,-17.56484 -15.53825,-13.48087 -21.64836,-20.80132 -21.66762,-25.95972 -0.0172,-4.64022 9.8609,-13.86463 20.33695,-18.99085 l 9.67366,-4.7336 -13.77909,-1.99695 c -7.5785,-1.09833 -17.47396,-2.62126 -21.98993,-3.38428 -4.51598,-0.76304 -14.12266,-2.24942 -21.34821,-3.30306 -7.22555,-1.05365 -16.83225,-2.56016 -21.34821,-3.3478 -4.51597,-0.78763 -13.1584,-1.91629 -19.20538,-2.50814 -7.15271,-0.70005 -11.87314,-2.04691 -13.50894,-3.85442 -1.87992,-2.07732 -2.79596,-8.67691 -3.63027,-26.15428 -0.61373,-12.85673 -1.555,-23.64513 -2.09168,-23.97422 -0.5367,-0.32909 -20.92818,0.0132 -45.3144,0.76043 -42.71825,1.3091 -73.05173,3.83091 -77.81471,6.4692 -1.65616,0.91737 0.2649,3.17764 7.06348,8.31063 11.787,8.89924 14.65385,13.82455 11.54555,19.83538 -1.22707,2.37286 -4.99892,5.62775 -8.38189,7.23308 -6.8093,3.23122 -33.667,9.75483 -49.98329,12.14071 -18.596,2.71922 -79.273641,13.35779 -86.058224,15.08853 -15.076514,3.846 -26.896542,8.40704 -29.63833,11.4367 -2.816141,3.1118 -2.784377,3.37996 0.860033,7.25926 5.629413,5.99224 26.884478,15.62416 59.158441,26.80817 33.181,11.49834 42.63758,14.25769 76.3609,22.28145 50.84663,12.09791 112.83641,22.56269 146.15314,24.67269 23.41369,1.4828 70.63511,-0.6469 85.77383,-3.8685 z m 56.05763,-63.30087 c 3.49767,-3.31462 0.64089,-5.95709 -5.24887,-4.85509 -2.86495,0.53603 -8.1649,0.23118 -11.77767,-0.67744 -3.61278,-0.90864 -9.1551,-2.30445 -12.31627,-3.10181 -6.54778,-1.65157 -15.04421,0.0881 -18.03585,3.6927 -2.98747,3.59969 4.09403,5.86043 22.96236,7.33069 16.83029,1.31143 20.93531,0.90978 24.4163,-2.38905 z m 216.46884,-13.61911 c -2.42696,-2.53319 -4.41266,-5.56922 -4.41266,-6.7467 0,-1.5589 -1.22764,-1.78409 -4.51596,-0.82843 -2.48379,0.72183 -7.75376,1.46972 -11.71103,1.66196 -6.33797,0.30789 -9.94301,2.41556 -10.02259,5.85965 -0.0305,1.31975 17.70941,4.16066 27.78845,4.4501 l 7.28645,0.20924 z m 24.46916,1.95973 c 3.63994,-0.91357 3.84982,-1.51466 2.72125,-7.7933 -1.78044,-9.90498 -1.20961,-21.91527 1.17833,-24.79257 1.7182,-2.07027 1.54923,-2.66386 -0.98468,-3.45947 -1.68231,-0.52822 -4.36872,-1.66217 -5.9698,-2.51987 -3.85805,-2.06678 -4.05023,-1.22601 -5.03842,22.04208 -0.71721,16.88779 -0.50035,19.29724 1.66216,18.46739 1.36787,-0.52488 4.26187,-1.39979 6.43116,-1.94426 z m -250.19681,-3.734 c -0.90179,-6.14423 1.8354,-11.07868 8.34823,-15.04984 4.53012,-2.76221 8.35813,-3.19116 28.52627,-3.19647 12.81172,-0.004 25.18958,0.71454 27.50634,1.59539 3.54121,1.34636 4.21234,1.13705 4.21234,-1.31374 0,-1.6034 0.82309,-3.73835 1.82908,-4.74434 1.344,-1.344 -0.72469,-2.09514 -7.80031,-2.83225 -10.31348,-1.07445 -32.27232,-4.03874 -37.34568,-5.04143 -2.71744,-0.53706 -25.40828,15.67699 -27.02271,19.30945 -0.30107,0.67739 -1.91507,1.23163 -3.58664,1.23163 -1.67158,0 -7.60727,1.98109 -13.19043,4.40243 l -10.15115,4.40244 8.81129,2.87869 c 4.84621,1.5833 11.45447,2.92759 14.68503,2.98734 5.55923,0.10284 5.83648,-0.145 5.17834,-4.6293 z m 61.61395,-1.81275 c 6.21608,-3.79002 6.89238,-7.42898 1.64217,-8.83598 -2.03219,-0.5446 -13.75615,-1.00029 -26.05326,-1.01262 -20.15233,-0.0202 -22.78531,0.3134 -26.68525,3.38111 -3.50189,2.75457 -6.01318,8.09166 -3.80741,8.09166 0.28571,0 4.53483,-0.70784 9.44247,-1.57298 6.52968,-1.15105 11.56576,-0.97595 18.77602,0.65282 14.07282,3.17902 20.599,3.00684 26.68526,-0.70401 z m 125.12846,-0.74647 3.76984,-4.0128 -4.68362,-4.02869 c -2.57601,-2.21579 -7.06777,-5.31264 -9.98171,-6.88189 -5.00295,-2.69426 -5.62669,-2.69728 -11.19686,-0.0541 -3.24434,1.53953 -8.26418,2.56252 -11.15521,2.27331 -5.10197,-0.51041 -5.23976,-0.35696 -4.68913,5.22173 0.31202,3.16118 0.91537,6.11709 1.34075,6.56869 0.75383,0.80023 22.61249,4.30732 29.41748,4.71987 1.87473,0.11368 5.10504,-1.59912 7.17846,-3.80617 z m 47.70994,-7.03451 v -9.40517 l -4.34282,4.34282 -4.34281,4.34282 3.93228,4.97149 c 2.16275,2.73431 4.11701,5.01235 4.3428,5.06233 0.22581,0.0499 0.41055,-4.14146 0.41055,-9.31429 z m 35.47216,7.87427 c 2.61855,-0.84198 8.88876,-2.67479 13.93381,-4.07289 8.48696,-2.35197 9.31573,-3.01915 11.08464,-8.92322 2.69588,-8.99799 2.31527,-16.93623 -0.99846,-20.82485 -2.7751,-3.25653 -20.2284,-15.55543 -22.07465,-15.55543 -1.01634,0 -5.27736,10.1054 -8.6554,20.52712 -4.60032,14.19257 -4.63437,30.38015 -0.0639,30.38015 1.1071,0 4.15538,-0.68889 6.77395,-1.53088 z m -54.22038,-12.07522 c 7.55156,-4.40261 12.52077,-9.41077 11.63301,-11.7242 -0.50551,-1.31738 -2.99103,-3.67984 -5.52336,-5.24992 -2.53232,-1.57008 -6.99743,-5.07529 -9.92247,-7.78937 l -5.31824,-4.93467 -3.88877,3.65329 c -2.13879,2.00931 -6.76587,4.0865 -10.28234,4.616 -6.08581,0.91638 -13.78339,6.67033 -13.78339,10.30309 0,2.17156 14.58141,9.57033 22.57314,11.45384 8.5304,2.01046 10.58082,1.96411 14.51242,-0.32806 z m 104.65314,-2.1954 c 8.29869,-2.36849 15.68514,-4.65521 16.41433,-5.08163 1.57144,-0.91896 -10.34337,-11.79273 -13.03046,-11.89191 -1.01839,-0.0376 -2.86583,1.16019 -4.10542,2.66178 -1.23958,1.50156 -5.39443,4.12257 -9.23301,5.82443 -3.83856,1.70186 -6.97922,4.10776 -6.97922,5.34641 0,1.23866 -0.44854,3.421 -0.99678,4.84965 -1.33528,3.4797 0.2959,3.32424 17.93056,-1.70873 z m -328.48463,-9.24159 c -0.4781,-5.64497 -1.39172,-10.84082 -2.03027,-11.54636 -1.14875,-1.26926 -11.56855,14.03592 -11.56855,16.99253 0,0.84317 1.6627,1.54436 3.69488,1.55819 2.03219,0.0132 4.80335,0.74149 6.15814,1.61703 4.26429,2.75579 4.63677,1.89848 3.7458,-8.62139 z m 97.23957,8.62446 c 6.77306,-2.5751 3.20112,-4.92958 -7.47859,-4.92958 -10.03916,0 -12.75523,2.18467 -6.06122,4.87534 4.96843,1.99706 8.39372,2.01079 13.53981,0.0542 z M 474.69384,887.0366 c -0.48088,-2.33978 -1.64145,-13.86083 -2.57903,-25.60235 -4.83744,-60.57939 -6.86184,-81.45211 -10.03412,-103.45672 -2.83357,-19.6551 -3.84055,-109.01912 -1.38783,-123.16276 2.93006,-16.89623 7.46739,-27.62755 14.93452,-35.32193 7.94289,-8.1846 14.51857,-11.14149 30.95074,-13.91763 l 12.36161,-2.08842 -9.03193,-0.14172 c -26.2881,-0.41241 -48.30765,12.55695 -58.11087,34.22688 -8.14211,17.99807 -10.04352,32.99581 -9.99331,78.82416 0.0252,23.03144 0.95696,51.85152 2.07048,64.04464 3.33178,36.48273 5.06016,54.20885 6.80508,69.79223 0.9102,8.12874 2.47511,26.23367 3.47757,40.23317 1.00245,13.99951 2.17101,27.8799 2.5968,30.84534 l 0.77412,5.39169 9.02025,-7.70623 c 7.62558,-6.51473 8.88506,-8.36399 8.14592,-11.96038 z m -59.15181,13.39919 c -0.61239,-1.58059 -1.71089,-6.04859 -2.4411,-9.92888 -0.7302,-3.88029 -1.66634,-7.39375 -2.0803,-7.8077 -0.41394,-0.41395 -3.13465,0.0777 -6.04602,1.09265 -3.59285,1.25246 -4.9973,2.61689 -4.37173,4.24714 0.50694,1.32101 0.92169,4.87642 0.92169,7.90092 0,5.71374 1.35512,6.57372 11.26034,7.14604 3.05368,0.17643 3.63559,-0.38289 2.75712,-2.65017 z m 24.61088,-13.22639 c 9.1552,-15.232 9.22082,-19.43939 0.29104,-18.66251 -3.43215,0.2986 -7.12703,-0.18238 -8.21085,-1.06883 -1.37766,-1.12684 -3.87831,0.0447 -8.31135,3.89389 l -6.34078,5.50567 1.92319,8.01677 c 1.05776,4.40921 3.38623,10.42255 5.17438,13.36293 4.07894,6.70726 5.34659,5.80222 15.47437,-11.04792 z m 188.59534,9.94204 c 4.0685,-3.38697 7.44438,-6.65209 7.50195,-7.25582 0.0576,-0.60373 -2.29699,-2.58717 -5.23236,-4.40764 -2.93538,-1.82047 -7.83749,-5.89744 -10.89357,-9.05993 -5.30058,-5.48515 -5.73551,-5.63271 -9.44248,-3.2038 -3.53687,2.31744 -3.88597,3.69712 -3.88597,15.35783 0,13.80333 0.36567,14.37543 9.33031,14.59786 3.74681,0.093 7.31749,-1.61243 12.62212,-6.0285 z m 189.33637,2.63453 c 7.42451,-1.86951 7.46569,-1.91897 6.49285,-7.80032 -0.53847,-3.25536 -0.98718,-9.34102 -0.99712,-13.52366 l -0.0181,-7.60481 h -14.77953 c -11.95303,0 -14.77953,0.46474 -14.77953,2.43013 0,1.33656 -1.23326,5.029 -2.74057,8.20542 -2.33555,4.9218 -2.39621,5.97209 -0.41054,7.10676 1.28151,0.7323 5.19407,3.97217 8.69457,7.1997 7.05487,6.50472 7.85496,6.67678 18.53795,3.98678 z m -423.73586,-3.4556 c -0.5446,-2.03219 -1.00029,-5.2542 -1.01262,-7.16003 -0.0192,-2.96085 -1.27708,-3.60324 -8.64381,-4.41407 -4.74176,-0.52191 -10.94436,-1.4409 -13.78353,-2.04221 -4.65471,-0.98579 -5.58115,-0.47662 -9.42479,5.17978 -5.16606,7.60257 -4.59857,8.07557 12.211,10.17805 20.76956,2.59776 21.7935,2.51144 20.65375,-1.74152 z m 203.22279,-41.20489 c -0.69284,-26.49297 -0.52004,-45.1085 0.44585,-48.03349 1.70907,-5.17559 -0.25431,-86.28818 -2.40122,-99.20065 -0.95648,-5.75276 -1.94602,-7.42684 -4.46698,-7.55717 -1.78108,-0.0921 -5.64,-0.27682 -8.57538,-0.41054 -4.16122,-0.18957 -5.33706,-0.96673 -5.33706,-3.52748 0,-3.15138 4.09017,-4.19089 14.54388,-3.69636 5.22948,0.24741 -3.88769,-45.70634 -12.88094,-64.92445 -2.75231,-5.8816 -5.26029,-10.39871 -5.57327,-10.03804 -0.31297,0.36067 0.12497,23.19455 0.97312,50.74196 0.8482,27.5474 1.72517,62.2793 1.94885,77.18199 0.22369,14.9027 1.02218,45.3294 1.77442,67.61488 1.26093,37.35568 1.60416,40.58092 4.39626,41.31105 4.049,1.05885 3.86923,6.11361 -0.25581,7.19234 -2.86449,0.74909 -3.28756,2.25137 -3.30948,11.75199 -0.0132,5.99121 -0.7528,12.00159 -1.64217,13.35638 -2.95068,4.49484 -4.84891,-1.56992 -4.88289,-15.60062 -0.0363,-14.98493 -2.93911,-100.53664 -4.20681,-123.98385 -0.69582,-12.86939 -1.1165,-37.70108 -2.36793,-139.77533 -0.006,-0.55656 -3.45909,-3.69721 -7.67167,-6.97922 -5.87782,-4.57936 -9.17961,-5.96727 -14.19591,-5.96727 h -6.53666 l 1.04688,11.08465 c 0.57579,6.09656 1.05213,13.85581 1.05855,17.24279 l 0.0111,6.15813 h 9.03193 c 7.75309,0 9.03193,0.43825 9.03193,3.09513 0,2.52921 -1.69248,3.30658 -9.25652,4.25164 l -9.25651,1.15654 1.0402,14.22275 c 2.71411,37.11086 4.45669,69.75301 4.44126,83.19391 -0.01,8.12875 0.41255,18.61803 0.9375,23.30949 0.8896,7.95026 1.30511,8.60488 6.11373,9.63212 6.59571,1.409 9.31046,3.6193 8.15229,6.63746 -0.6198,1.61518 -2.85094,2.24178 -6.88161,1.93265 l -5.96444,-0.45746 0.0906,7.38977 c 0.0499,4.06437 1.04831,23.59197 2.21868,43.39469 2.04652,34.62558 1.40375,60.06203 -1.51769,60.06203 -1.95827,0 -2.92881,-4.01938 -4.16354,-17.24279 l -1.07337,-11.49519 -8.04092,0.56903 c -7.19601,0.50925 -8.04094,0.21538 -8.04094,-2.7966 0,-2.46276 1.57474,-3.80046 5.87011,-4.98646 3.22854,-0.89144 7.03635,-1.17328 8.46177,-0.62629 2.30456,0.88435 2.4661,-0.99138 1.45808,-16.93079 -0.62348,-9.85893 -1.83968,-31.96587 -2.70268,-49.12655 -0.86298,-17.16068 -2.31428,-41.5469 -3.22511,-54.19162 -2.37609,-32.98678 -5.00877,-123.6445 -3.81021,-131.20741 l 1.01463,-6.40249 -17.95828,0.85117 c -13.65249,0.6471 -19.54614,1.66126 -24.58082,4.22976 -9.34401,4.76698 -10.95891,7.16233 -9.26361,13.74066 1.40027,5.43356 1.5054,5.48533 12.79534,6.29967 8.73857,0.63031 11.50017,1.43598 11.88573,3.46757 0.5288,2.78619 -6.43741,4.68841 -17.30431,4.72519 -6.36152,0.0216 -6.1542,-2.59324 -2.80079,35.32474 3.907,44.17784 5.47184,65.36785 5.15099,69.75153 -0.26455,3.61454 0.61122,4.26071 7.90762,5.83454 11.52302,2.48547 11.97198,6.53115 0.88796,8.00149 -7.46041,0.98967 -8.2313,1.47152 -7.57972,4.73785 0.39895,1.99987 1.51764,12.50384 2.48596,23.34216 0.96831,10.83832 2.53813,27.74467 3.4885,37.56963 2.23172,23.07202 0.14811,40.90577 -3.99584,34.20072 -1.0359,-1.67612 -3.62284,-27.14569 -6.87271,-67.66493 -1.41259,-17.61227 -3.24256,-39.41208 -4.0666,-48.44401 -6.28617,-68.90006 -6.61557,-73.74429 -7.17488,-105.51036 -0.0847,-4.81421 -0.8599,-8.38627 -1.75505,-8.0879 -0.88176,0.29394 -2.99285,5.65193 -4.69132,11.90666 -4.56403,16.80746 -5.59843,68.91533 -2.01868,101.6916 1.47967,13.5479 3.3806,30.91385 4.22428,38.59099 0.8437,7.67715 2.30047,21.29474 3.23728,30.26132 0.93681,8.96659 1.89327,16.49284 2.12547,16.72506 0.23221,0.2322 2.62578,0.71389 5.31905,1.0704 3.51123,0.4648 5.04533,1.65681 5.42161,4.21261 0.44577,3.02793 -0.27047,3.5644 -4.75894,3.5644 h -5.28368 l 1.11221,26.68527 c 1.4494,34.77508 2.0649,38.51132 6.51661,39.55751 1.94216,0.45642 9.99725,1.34442 17.9002,1.97334 l 14.36899,1.14348 v -5.94181 -5.94183 h -9.90455 c -7.47799,0 -10.14653,-0.63053 -10.89217,-2.57365 -1.53739,-4.00638 1.24903,-5.52435 10.75836,-5.86093 l 8.76904,-0.31037 -1.10672,-25.59714 c -0.60869,-14.07842 -1.80043,-33.35638 -2.64831,-42.83991 -0.84788,-9.48353 -1.55534,-26.47999 -1.57214,-37.76991 -0.0168,-11.28993 -0.735,-27.17792 -1.59599,-35.30667 -2.49083,-23.51622 -3.78734,-83.38548 -1.866,-86.16637 0.91798,-1.32863 2.23819,-1.84656 2.93381,-1.15095 1.78039,1.7804 3.61484,21.9413 3.76122,41.33657 0.17344,22.97723 0.49935,23.81146 9.30257,23.81146 6.58334,0 7.19823,0.3507 7.19823,4.10543 0,3.7828 -0.59229,4.10542 -7.53718,4.10542 h -7.53718 l 0.94256,13.54791 c 4.19084,60.23815 7.15867,111.72665 6.98085,121.11005 -0.077,4.06437 0.0225,14.88986 0.22111,24.05665 l 0.36117,16.66688 7.8003,0.97535 c 4.29018,0.53645 18.51546,1.71659 31.61178,2.62258 13.0963,0.90597 24.91992,1.9337 26.27471,2.28384 8.85102,2.28755 8.42695,4.77634 7.19743,-42.23997 z m 97.90146,24.18111 c 0,-15.57566 -0.0506,-15.77858 -3.69489,-14.80196 -2.03218,0.54461 -5.68945,1.00029 -8.12727,1.01263 -3.1474,0.0164 -5.74437,1.74251 -8.95788,5.95562 l -4.52548,5.9332 4.83813,3.50929 c 2.66098,1.93008 5.99791,4.66259 7.41541,6.07223 3.51395,3.49441 10.21619,8.11114 11.77521,8.11114 0.70223,0 1.27677,-7.10647 1.27677,-15.79215 z m 77.182,12.34788 c 10.11567,-6.04025 11.41807,-8.88845 11.45866,-25.05887 0.0331,-13.21552 -0.2261,-14.43656 -2.83727,-13.36159 -1.5806,0.6507 -4.35176,1.58866 -6.15814,2.08437 -4.11065,1.12802 -5.69029,3.41194 -5.72246,8.27381 -0.0132,2.09006 -1.87258,7.83903 -4.13056,12.77548 -4.28904,9.37678 -4.76116,11.82711 -3.10865,16.13349 1.32474,3.45223 3.60726,3.26814 10.49842,-0.84669 z m 75.48327,-0.31259 c 11.58537,-3.53268 12.32237,-4.0446 13.39858,-9.30662 1.41017,-6.895 0.0681,-15.867 -2.71938,-18.18045 -1.15143,-0.95559 -4.32101,-2.37629 -7.04353,-3.1571 -4.50898,-1.29316 -5.13032,-0.98441 -6.97342,3.46523 -1.11286,2.68667 -4.49929,7.43439 -7.5254,10.55044 -4.58005,4.71621 -5.502,6.89884 -5.502,13.02546 0,4.79809 0.7145,7.35666 2.0527,7.35061 1.129,-0.005 7.5696,-1.69151 14.31245,-3.74757 z M 351.41469,888.889 c 11.30001,-15.47157 13.98214,-20.64239 13.98214,-26.95586 0,-11.1013 -3.80498,-15.41023 -15.42358,-17.46645 -5.51654,-0.97629 -11.76828,-2.28253 -13.89276,-2.90274 l -3.86272,-1.12766 1.20309,25.2785 c 0.74036,15.55588 1.91023,25.74257 3.04163,26.48501 4.25825,2.79433 11.69604,1.14743 14.9522,-3.3108 z m 368.61973,-5.91945 c 0.81936,-2.15508 2.22588,-10.46856 3.12559,-18.47441 0.8997,-8.00584 2.13754,-15.84929 2.75071,-17.42987 0.99653,-2.56868 -0.1,-2.87381 -10.32724,-2.87381 h -11.44214 l -1.03555,8.62139 c -0.56956,4.74177 -1.04199,12.79794 -1.04983,17.90262 -0.0132,8.68177 0.33042,9.50196 5.32278,12.69914 7.0129,4.49119 10.82996,4.35696 12.65568,-0.44506 z M 659.189,879.00314 c 3.24713,-3.43342 6.94285,-8.21882 8.21273,-10.63422 2.22333,-4.22895 2.04082,-4.63396 -4.92651,-10.93286 -5.30175,-4.7931 -8.69233,-6.5592 -12.68708,-6.60857 -3.26834,-0.0404 -8.28173,-2.01443 -12.51796,-4.92904 -7.18529,-4.94362 -9.12614,-4.95839 -9.12614,-0.0695 0,1.50278 -1.84436,6.36771 -4.09855,10.81095 -2.25421,4.44324 -4.10165,8.60891 -4.10542,9.25706 -0.0132,2.16502 17.42837,14.37479 23.94277,16.7614 8.91653,3.26666 8.71406,3.315 15.30616,-3.65529 z m 226.43426,-10.76595 c 0.2638,-6.90281 0.0709,-12.55053 -0.42842,-12.55053 -0.49944,0 -4.22541,1.55934 -8.27994,3.46518 l -7.37187,3.46519 v 10.21956 c 0,5.62076 0.40438,10.62396 0.89863,11.1182 0.49424,0.49424 4.00438,-0.0164 7.80031,-1.13423 l 6.90168,-2.03286 z m -125.2248,-3.94104 c 3.38668,-15.98132 3.10542,-17.83723 -3.83022,-25.2726 l -6.23375,-6.6829 -5.87871,3.87268 c -3.23328,2.13 -7.05466,4.61168 -8.49193,5.51487 -1.83103,1.15063 -2.92472,5.32885 -3.65381,13.95846 l -1.04058,12.31627 12.07138,5.90005 c 13.92621,6.80663 13.53236,7.02845 17.05762,-9.60683 z m -347.43115,6.05674 c 4.64932,-3.67508 8.83395,-7.67386 9.29916,-8.88618 0.4652,-1.21229 -1.04782,-5.0657 -3.36227,-8.56307 -2.31446,-3.49738 -5.33987,-10.1699 -6.72311,-14.82779 -2.50537,-8.43653 -2.53385,-8.46233 -7.4477,-6.74934 -2.713,0.94575 -7.47957,1.42221 -10.5924,1.05881 -6.88377,-0.80365 -7.38793,0.18273 -8.57365,16.77377 -0.74189,10.381 -0.3178,13.59839 2.65159,20.11658 3.33138,7.31289 3.90171,7.7592 9.91488,7.7592 4.98178,0 8.23294,-1.46455 14.8335,-6.68198 z m -33.66713,1.34493 c -0.69258,-2.03219 -1.57839,-8.68298 -1.96845,-14.77953 -0.66753,-10.433 -0.94266,-11.08465 -4.67988,-11.08465 -4.55043,0 -4.84986,1.16276 -1.4552,5.65091 2.78176,3.6778 3.20674,16.06857 0.7111,20.73176 -1.51356,2.82811 -1.13245,3.17639 3.47586,3.17639 4.64583,0 5.04687,-0.37834 3.91657,-3.69488 z M 837.629,862.04595 c 2.32678,-4.49951 3.47643,-30.99186 1.3449,-30.99186 -0.55552,0 -6.12563,2.40168 -12.37802,5.33707 -9.47929,4.45036 -11.225,5.8827 -10.50753,8.62139 0.47322,1.80639 0.87049,6.42499 0.88283,10.26356 0.0202,6.30822 0.40975,6.97922 4.05118,6.97922 2.34018,0 5.2654,1.65355 6.97923,3.94517 3.34887,4.47794 5.68461,3.46998 9.62741,-4.15455 z M 613.12643,859.7665 c 3.03023,-4.0226 6.58181,-10.97183 7.89242,-15.44276 4.10687,-14.00978 -0.44434,-23.18981 -15.4293,-31.12172 -3.57191,-1.89072 -3.64911,-1.75555 -2.9024,5.08106 0.42191,3.86289 1.22388,16.44538 1.78217,27.9611 0.55827,11.51571 1.49486,20.91482 2.08131,20.88688 0.58645,-0.0279 3.54556,-3.34197 6.5758,-7.36456 z m 189.49818,3.07697 6.15813,-1.01786 v -21.13335 c 0,-11.62335 -0.5085,-21.13335 -1.13,-21.13335 -2.3018,0 -11.9853,7.45365 -11.99614,9.23372 -0.006,1.0142 -1.48294,5.17105 -3.28173,9.23749 -2.88967,6.5326 -3.05449,8.4691 -1.41545,16.63046 1.02027,5.08031 2.67673,9.22879 3.68104,9.21884 1.0043,-0.01 4.59717,-0.47611 7.98415,-1.03595 z M 444.87366,859.2435 c 0.46558,-0.75331 0.13055,-8.28996 -0.74453,-16.74809 -1.24566,-12.04003 -2.35597,-16.19264 -5.11475,-19.12923 -5.15236,-5.48445 -8.24112,-5.9036 -16.72025,-2.26902 -8.68706,3.7237 -8.76465,2.27896 1.24041,23.0943 3.25597,6.77395 7.16671,13.24 8.69055,14.36899 3.13001,2.31897 11.36275,2.76356 12.64857,0.68305 z m 244.25069,-2.17461 6.34866,-1.90211 v -19.24083 -19.24084 l -5.13179,-1.02636 c -17.87351,-3.5747 -25.09863,0.73497 -28.59712,17.05778 -1.25589,5.85961 -2.30941,11.22687 -2.34114,11.9272 -0.0644,1.42161 19.64169,14.28716 21.92109,14.31167 0.7984,0.009 4.30854,-0.84035 7.8003,-1.88651 z m 183.47104,-4.50138 c 2.40922,-1.71553 6.21819,-3.37823 8.46435,-3.69488 3.79838,-0.53549 4.11837,-1.30466 4.57702,-11.00154 0.34983,-7.39622 -0.25766,-11.57162 -2.09057,-14.36899 -3.59467,-5.48616 -4.96571,-4.96697 -7.27976,2.7567 -2.38483,7.95981 -11.35594,17.18457 -20.12381,20.69277 -10.84836,4.34065 -7.90722,7.37192 8.2204,8.47227 2.11857,0.14451 5.82312,-1.14079 8.23237,-2.85633 z m -89.17467,-12.39082 c 1.4222,-2.17056 3.24357,-8.25174 4.04749,-13.51374 2.85159,-18.6648 3.72508,-22.72838 5.32179,-24.75737 2.01413,-2.55945 -0.54756,-2.54126 -15.87425,0.11282 l -11.33988,1.96366 -4.63506,11.44252 -4.63507,11.44251 4.80706,4.96734 c 2.64389,2.73202 5.96766,7.74986 7.38616,11.15076 l 2.57909,6.18345 4.87843,-2.52274 c 2.68315,-1.38751 6.04206,-4.29863 7.46424,-6.46916 z m -131.18317,-2.14337 c 1.04767,-2.48379 2.42553,-7.10239 3.06191,-10.26356 0.63637,-3.16118 2.15126,-7.6943 3.36643,-10.07357 l 2.20939,-4.32596 -19.23942,-1.91872 c -10.58168,-1.05528 -21.06326,-2.30378 -23.29241,-2.77441 -3.45191,-0.72881 -2.92505,0.1973 3.55261,6.24468 5.37077,5.01401 7.93872,8.89047 8.73929,13.19237 0.90013,4.83675 2.53669,6.93834 7.9426,10.19949 8.78436,5.2992 11.32813,5.24702 13.6596,-0.28032 z m 205.31715,-0.3423 c 3.34252,-2.03808 7.07713,-6.87745 10.26356,-13.29976 2.75502,-5.55276 4.98745,-10.57431 4.96098,-11.15901 -0.0265,-0.58471 -2.28474,-3.5227 -5.01836,-6.52886 -4.70398,-5.17296 -5.17439,-5.33194 -8.7821,-2.96809 -2.09655,1.37371 -4.32013,4.52262 -4.94131,6.99758 -0.62117,2.47498 -2.83884,6.53149 -4.92814,9.01448 -3.30302,3.92543 -3.61987,5.43983 -2.42813,11.60551 0.75382,3.90004 1.40278,7.64522 1.4421,8.32262 0.12449,2.14352 3.99795,1.32848 9.4314,-1.98447 z m -483.37336,0.0257 c 5.01887,-1.90815 6.47212,-6.19066 6.19913,-18.26765 -0.24953,-11.03825 -3.5907,-21.37282 -9.35184,-28.92604 -3.70106,-4.85232 -5.03071,-5.44977 -12.1286,-5.44977 -7.94941,0 -7.99538,0.0317 -16.33813,11.2855 -8.7752,11.83709 -9.71217,15.66468 -7.34236,29.99397 0.96167,5.8148 1.29789,6.05921 12.70876,9.23828 13.46999,3.75275 20.48065,4.32042 26.25304,2.12576 z m 356.36014,-4.41322 c 13.36198,-3.79175 15.55611,-5.48281 20.86706,-16.08259 l 4.99962,-9.9784 -3.69275,-0.56681 c -2.031,-0.31175 -7.79742,0.23925 -12.81425,1.22446 -26.4625,5.19681 -34.51933,6.73216 -35.32698,6.73216 -0.48968,0 -0.89032,5.25798 -0.89032,11.6844 v 11.68442 l 9.2043,-1.15001 c 5.06236,-0.6325 13.00636,-2.22892 17.65332,-3.54758 z m 92.66802,-3.41591 c 2.45201,-1.54471 8.70731,-6.02176 13.90068,-9.94901 10.15926,-7.68248 10.76415,-9.40581 8.37538,-23.86114 -0.98668,-5.97086 -1.25015,-6.19343 -6.14005,-5.18663 -3.15565,0.64971 -8.63934,4.60474 -14.34202,10.34398 l -9.23287,9.29206 0.8028,11.08465 c 0.44152,6.09655 1.11218,11.08465 1.49034,11.08465 0.37816,0 2.69374,-1.26385 5.14574,-2.80856 z m -416.97463,-7.60503 c 1.00545,-1.2115 2.24894,-7.67754 2.76328,-14.36898 0.51436,-6.69145 1.07541,-13.64421 1.24677,-15.4506 0.28463,-3.00035 -1.02905,-3.38737 -15.19227,-4.47587 -8.52714,-0.65534 -15.74295,-0.95246 -16.03514,-0.66027 -0.29219,0.29219 1.34769,3.89304 3.64417,8.00189 2.71835,4.86368 4.52874,11.2544 5.18793,18.3136 l 1.01254,10.84296 h 7.7723 c 4.49679,0 8.54273,-0.9283 9.60042,-2.20273 z m 411.47465,-25.21115 c 0.99753,-2.59955 0.52681,-2.61519 -10.7056,-0.35608 l -8.89529,1.78907 -0.31643,8.89903 -0.31644,8.89901 9.70529,-8.54295 c 5.33792,-4.69862 10.07572,-9.50826 10.52847,-10.68808 z m -377.56461,6.4763 c -0.6459,-6.09656 -1.28622,-11.17145 -1.42293,-11.27756 -0.13664,-0.10604 -4.86719,-0.69701 -10.51214,-1.31316 l -10.26357,-1.12026 v 11.75241 c 0,10.54872 0.29434,11.63127 2.8738,10.56936 6.32891,-2.60551 8.4604,-2.63847 12.96028,-0.20036 2.58119,1.3985 5.33336,2.5723 6.11598,2.60846 0.78262,0.0361 0.89449,-4.92233 0.24858,-11.01889 z m 444.17765,-6.00439 c 0,-15.18794 -0.062,-15.43195 -3.69488,-14.55678 -3.9711,0.95663 -12.72681,8.33265 -12.72681,10.72135 0,1.26236 14.91587,19.2063 16.01115,19.26157 0.2258,0.0111 0.41054,-6.93036 0.41054,-15.42614 z M 697.73212,763.31458 c 1.09369,-43.40833 2.78183,-66.4218 5.99289,-81.69796 0.85434,-4.06437 2.74061,-14.41004 4.19172,-22.99038 1.45111,-8.58035 4.05544,-19.70437 5.78741,-24.72005 l 3.14902,-9.11943 -12.97263,-19.74964 C 649.50436,522.25435 600.42386,436.07947 553.70379,341.3587 c -11.89468,-24.1154 -22.17269,-43.88302 -22.84,-43.92805 -0.66731,-0.045 -4.15626,5.77143 -7.75323,12.92544 -23.20136,46.14522 -67.4223,108.29871 -107.5886,151.21816 -10.30767,11.01417 -42.16227,47.3245 -58.83052,67.05952 -3.43318,4.06483 -11.65729,13.36098 -18.27581,20.65807 -6.61853,7.29709 -14.0524,15.68842 -16.51975,18.64738 l -4.48608,5.37991 3.34675,25.00023 c 8.06605,60.25298 10.61953,101.42841 9.06334,146.14904 l -1.04905,30.14709 26.11331,2.09583 c 37.78024,3.03221 69.5041,6.41692 76.78274,8.19215 l 6.33086,1.54407 -1.0068,-12.59284 c -0.55374,-6.92606 -1.4549,-34.87558 -2.00257,-62.11006 -1.12113,-55.75335 0.38256,-70.96715 9.29964,-94.08992 11.7413,-30.44624 37.13303,-45.03008 72.9646,-41.90747 34.41814,2.99941 59.1118,21.91503 72.20971,55.31339 10.21661,26.05135 13.95058,56.50762 15.05679,122.81147 l 0.80825,48.44401 18.38755,1.18041 c 10.11316,0.64924 27.62477,1.83411 38.91469,2.63304 11.28991,0.79895 23.55291,1.56097 27.25109,1.69339 l 6.72394,0.24076 z M 504.56405,556.67101 c -41.70193,-9.82841 -57.77279,-61.00245 -29.03285,-92.44854 15.62688,-17.09829 34.55303,-22.5211 55.09439,-15.78587 27.72643,9.09111 43.28762,31.04611 41.2356,58.17853 -1.99919,26.43393 -20.46635,46.37117 -46.42724,50.12313 -13.00501,1.87951 -12.6043,1.8808 -20.8699,-0.0674 z m 25.04979,-8.19503 c 2.98801,-0.89887 1.48619,-1.27343 -5.51773,-1.37617 -25.05964,-0.36757 -45.83223,-23.80496 -43.25241,-48.80103 2.36981,-22.96128 21.93821,-41.32338 44.5467,-41.80061 6.65008,-0.14041 6.65971,-0.14977 1.76018,-1.7179 -6.72457,-2.15221 -20.8908,-0.42443 -30.53435,3.72412 -16.42087,7.06408 -27.79801,26.03375 -27.72662,46.22999 0.0562,15.86707 7.38593,28.83114 21.91171,38.75454 11.15897,7.62334 24.39548,9.3241 38.81252,4.98706 z m -7.81213,-23.68661 -0.79467,-14.77953 -17.15463,-0.40792 c -17.09818,-0.40657 -17.15103,-0.39576 -16.05322,3.28435 2.12268,7.11565 8.69927,16.86568 14.0167,20.78024 5.85632,4.3113 18.16361,8.64121 19.77324,6.95656 0.55399,-0.5798 0.64963,-7.70496 0.21258,-15.8337 z m 20.60436,12.46018 c 7.93563,-4.09035 15.95427,-12.5533 19.14685,-20.20775 1.40056,-3.35797 2.54649,-6.52361 2.54649,-7.03477 0,-0.51117 -7.944,-0.71965 -17.65334,-0.46329 -16.5373,0.43664 -17.63156,0.67374 -17.30906,3.75044 0.18935,1.80638 0.50352,8.64191 0.69814,15.19007 0.40292,13.55658 1.62382,14.40788 12.57092,8.7653 z m -29.03259,-35.61824 7.20843,-0.98878 0.24184,-18.64647 0.24184,-18.64648 -8.4527,3.15891 c -5.28058,1.97344 -10.72664,5.68197 -14.51202,9.88209 -6.10605,6.775 -12.30872,21.43806 -10.38518,24.55043 1.14976,1.86036 14.50764,2.21975 25.65779,0.6903 z m 50.72201,-3.28216 c 0.0148,-12.36973 -10.9404,-26.90156 -23.94758,-31.76817 -5.02354,-1.87955 -9.81829,-2.99429 -10.65498,-2.47719 -1.76608,1.09151 -1.94001,11.66582 -0.45122,27.42958 l 1.04669,11.0826 17.00157,-0.40849 c 16.04764,-0.38556 17.00181,-0.60207 17.00552,-3.85833 z m -26.2708,-40.06767 c -1.35479,-0.87554 -3.20223,-1.59187 -4.10543,-1.59187 -0.90319,0 -0.5337,0.71633 0.82109,1.59187 1.35479,0.87554 3.20223,1.59187 4.10542,1.59187 0.9032,0 0.53371,-0.71633 -0.82108,-1.59187 z m 236.88088,336.00931 c 31.38479,-5.93778 58.72692,-11.13707 60.76029,-11.55396 2.03336,-0.41691 12.2977,-2.40605 22.80962,-4.42034 l 19.11261,-3.66234 1.09945,-22.29675 c 1.9764,-40.08132 9.0578,-85.0353 17.99861,-114.25829 8.50725,-27.80587 12.18457,-39.50806 13.21528,-42.05437 0.94347,-2.33076 0.0429,-2.47417 -7.63869,-1.21646 -4.78953,0.78421 -13.88108,2.21086 -20.20343,3.17035 -6.32235,0.9595 -15.92905,2.43404 -21.34821,3.27677 -23.35586,3.63201 -75.29407,9.66473 -91.55098,10.63381 -9.70934,0.57878 -17.65333,1.68595 -17.65333,2.46037 0,0.77445 -6.72657,3.42679 -14.94794,5.89412 -8.22136,2.4673 -15.16346,5.27271 -15.42691,6.2342 -0.26344,0.96151 -2.36109,12.09386 -4.66142,24.73857 -5.09708,28.01806 -7.14525,47.7226 -9.30284,89.49827 -0.90962,17.61228 -2.13648,39.706 -2.72638,49.09716 l -1.07254,17.07484 7.23678,-0.90999 c 3.98023,-0.50048 32.91523,-5.76818 64.30003,-11.70596 z m -11.60946,-41.80601 c -2.82088,-1.83843 -4.84051,-72.71469 -2.25778,-79.23366 1.84569,-4.65867 0.18628,-4.25474 46.30225,-11.27052 30.12061,-4.58236 38.31725,-5.2871 40.967,-3.52231 2.44497,1.62841 1.77248,11.46186 -3.38065,49.43305 -5.18599,38.21326 -4.97831,37.76138 -17.36182,37.77867 -3.44635,0.005 -14.76432,1.40875 -25.15104,3.11987 -26.57195,4.3775 -36.61501,5.32614 -39.11796,3.6949 z m 22.8052,-8.3043 c 4.90764,-0.81444 15.38904,-2.41146 23.29197,-3.54896 7.90295,-1.13751 14.36899,-2.77424 14.36899,-3.63718 0,-0.87104 -2.00889,-1.10255 -4.51597,-0.52045 -2.48377,0.5767 -15.04637,2.27432 -27.91688,3.7725 -12.87051,1.49818 -23.40092,3.32941 -23.40092,4.0694 0,1.75994 7.06939,1.7073 18.17281,-0.13531 z m -4.09282,-10.15609 c 11.55748,-2.01266 12.13406,-2.84022 12.17231,-17.4706 l 0.0224,-8.58034 -4.77917,0.95584 c -2.62854,0.52571 -8.35561,1.06147 -12.72682,1.19058 l -7.94765,0.23472 -0.47961,12.72683 c -0.53925,14.30916 -1.44568,13.58718 13.73853,10.94297 z m 52.73445,-18.03618 c 1.14726,-8.51765 2.84082,-20.43232 3.76347,-26.47708 2.34137,-15.3394 2.19361,-24.75951 -0.37516,-23.91531 -2.19828,0.72243 -6.64023,27.56209 -8.73508,52.78004 -0.99411,11.96724 -0.80996,14.45592 1.02443,13.84446 1.46053,-0.48685 2.96006,-6.1182 4.32234,-16.23211 z m -20.40784,12.35675 c 6.73952,-1.22143 7.28946,-2.29788 8.14213,-15.93765 0.54774,-8.7619 0.54783,-8.76185 -14.08637,-6.75602 l -7.61897,1.04431 v 12.27107 c 0,11.89362 0.11368,12.24381 3.69488,11.38411 2.03219,-0.48785 6.47293,-1.39046 9.86833,-2.00582 z m -30.92978,-27.27915 c 5.20077,-1.04445 9.69636,-2.70715 9.99023,-3.69489 0.29386,-0.98771 0.93102,-7.2575 1.4159,-13.93286 l 0.88163,-12.137 -12.18533,0.92157 c -6.70193,0.50687 -12.94897,1.39353 -13.88229,1.97036 -0.95098,0.58773 -1.69696,7.1423 -1.69696,14.91031 0,15.79028 -0.73897,15.21911 15.47682,11.96251 z m 40.21975,-5.78822 c 0.37614,-0.2876 1.53401,-6.86123 2.57302,-14.60803 l 1.88912,-14.08514 -9.96278,1.06559 c -16.6213,1.77776 -15.71036,0.78994 -15.71036,17.03633 v 14.34359 l 10.26356,-1.61473 c 5.64495,-0.8881 10.5713,-1.85002 10.94744,-2.13761 z m -481.60924,88.65773 c -1.3442,-1.34419 -10.05129,-1.42186 -10.49403,-0.0936 -0.2258,0.6774 -0.41054,4.61363 -0.41054,8.74719 v 7.51554 l 5.85992,-7.67692 c 3.22295,-4.2223 5.49306,-8.04379 5.04465,-8.49218 z m 521.06766,3.88133 c 0.0789,-1.18396 -9.62631,0.0616 -11.14373,1.43019 -0.30825,0.27803 -0.07,2.05099 0.52956,3.93992 l 1.09004,3.43443 4.71664,-3.72121 c 2.59414,-2.04667 4.75752,-4.33415 4.80749,-5.08333 z M 733.54573,613.25016 c 5.25262,-1.47381 9.55021,-3.2649 9.55021,-3.9802 0,-1.1071 -4.59439,-8.96283 -19.93644,-34.08845 -24.83114,-40.66587 -64.48095,-109.69332 -95.44631,-166.16513 -11.70573,-21.34784 -15.04625,-27.58056 -36.52603,-68.15007 -12.43323,-23.48302 -24.61626,-46.3913 -27.07337,-50.90727 -2.45712,-4.51597 -11.68063,-21.88192 -20.49669,-38.59099 -8.81605,-16.70909 -18.59606,-35.05352 -21.73334,-40.76541 l -5.70412,-10.38525 -4.50615,6.27983 C 437.46091,309.92103 380.10317,384.76155 324.5061,450.71367 c -11.37985,13.49937 -25.12451,29.82254 -30.54367,36.27371 -5.41916,6.45119 -20.19869,23.73483 -32.8434,38.4081 -12.6447,14.67326 -23.2006,27.2668 -23.45754,27.98567 -0.45196,1.26448 17.36077,8.47852 20.3418,8.2383 0.81046,-0.0654 5.46409,-4.68391 10.34143,-10.26355 4.8773,-5.57966 18.92436,-21.59897 31.21569,-35.59846 12.29133,-13.99951 27.85154,-32.10443 34.57822,-40.23317 6.72671,-8.12875 12.66776,-15.14902 13.20231,-15.60062 1.16583,-0.98487 36.2592,-43.41069 50.25912,-60.76029 8.5507,-10.59658 82.39888,-105.82184 91.78061,-118.34866 1.80639,-2.41196 7.68337,-10.10438 13.05998,-17.0943 9.71522,-12.6304 9.79319,-12.68728 12.61456,-9.203 1.56141,1.92826 9.2751,15.86428 17.14156,30.96896 7.86645,15.10468 17.78987,34.11386 22.05203,42.2426 4.26217,8.12874 12.38433,23.64725 18.04926,34.48557 5.66491,10.83832 13.04926,24.87888 16.40969,31.20123 3.36042,6.32236 10.0371,18.88496 14.83707,27.91689 34.76626,65.41849 113.05991,194.38616 118.09519,194.52991 1.29552,0.0369 6.6531,-1.13859 11.90572,-2.6124 z m 37.22183,-6.44945 c 0.31669,-0.27889 -1.16126,-6.06994 -3.28434,-12.86901 l -3.86016,-12.36195 -12.31627,0.98751 c -6.77396,0.54312 -12.58498,1.21465 -12.9134,1.4923 -0.32842,0.27765 2.62748,6.08479 6.56868,12.90481 l 7.16581,12.40003 9.03193,-1.02331 c 4.96757,-0.56283 9.29105,-1.25151 9.60775,-1.53038 z m 26.6142,-4.24891 c 6.27055,-1.03556 11.40098,-2.64584 11.40098,-3.57837 0,-0.93257 -1.57804,-6.59525 -3.50677,-12.58373 l -3.50677,-10.88818 -14.64208,2.5016 -14.6421,2.50158 1.09151,6.46065 c 1.8129,10.73039 5.30312,17.46927 9.04774,17.46927 1.84608,0 8.48697,-0.84727 14.75749,-1.88282 z m 42.60221,-6.40312 c 23.00216,-3.42626 21.64269,-2.12765 15.77247,-15.06631 -2.16346,-4.76853 -4.19565,-10.0023 -4.51597,-11.6306 -0.32032,-1.6283 -1.32137,-2.98127 -2.22457,-3.0066 -4.2433,-0.1191 -38.59099,7.35633 -38.59099,8.39881 0,0.651 0.65547,3.3261 1.4566,5.94467 0.80112,2.61856 2.31665,7.9281 3.36786,11.79898 1.82192,6.70894 2.15687,6.99956 7.16479,6.21678 2.88945,-0.45165 10.79586,-1.64674 17.56981,-2.65573 z m 47.45136,-7.28219 c 7.58279,-1.33447 14.19844,-2.83784 14.70143,-3.34085 0.50301,-0.503 -0.41641,-4.39825 -2.04314,-8.65611 -1.62674,-4.25786 -3.6585,-10.14324 -4.51506,-13.07862 -1.80572,-6.1882 -2.28417,-6.25554 -20.28793,-2.85539 -18.57513,3.50807 -17.68353,2.83725 -14.64302,11.01714 8.13742,21.89199 6.03683,20.56567 26.78772,16.91383 z m 41.63636,-7.66434 c 4.29018,-0.95023 7.80032,-2.34799 7.80032,-3.10617 0,-0.75816 -2.95196,-4.78923 -6.55993,-8.95789 -3.60794,-4.16867 -7.02396,-9.4283 -7.59113,-11.68808 -0.99228,-3.95355 -1.38011,-4.0664 -10.27231,-2.98898 -5.08262,0.61582 -9.54427,1.3919 -9.91478,1.72458 -0.8374,0.75195 2.42078,12.26235 6.11202,21.59229 3.06261,7.74109 1.85184,7.53812 20.42581,3.42425 z m -189.50513,-3.2029 c 2.84435,-0.99154 5.17155,-2.36786 5.17155,-3.05847 0,-1.96675 -9.70454,-25.00342 -11.38714,-27.03082 -0.82894,-0.99884 -2.4095,-5.39951 -3.51235,-9.77932 l -2.00518,-7.96326 -10.01209,1.13273 c -5.50666,0.62301 -10.27986,1.40051 -10.6071,1.72776 -0.48398,0.48397 26.18997,46.7742 26.95281,46.7742 0.12531,0 2.55513,-0.81126 5.3995,-1.80282 z m 213.48502,-3.28536 5.1745,-1.80385 -10.72865,-11.98735 c -8.18303,-9.14311 -11.50174,-11.7852 -13.98696,-11.13532 -5.08584,1.32998 -5.39566,3.41834 -1.27213,8.57486 2.09692,2.6222 5.98651,7.77991 8.64357,11.46158 5.41272,7.49999 5.07367,7.36376 12.16967,4.89008 z m -181.57906,-2.41253 c 9.16679,-1.28204 9.16742,-1.1796 -0.11725,-19.5951 -3.18758,-6.32235 -6.69742,-14.45109 -7.79968,-18.06387 l -2.00408,-6.56868 -12.86398,0.48871 c -7.0752,0.26877 -13.07362,0.69834 -13.32985,0.95454 -0.47359,0.47358 4.06003,11.91337 13.29241,33.54107 4.94866,11.59268 5.28474,11.96627 10.04645,11.16753 2.70958,-0.45452 8.45877,-1.32041 12.77597,-1.9242 z M 322.274,555.58006 c 46.81988,-51.54309 77.4454,-86.50532 103.33771,-117.97086 27.21769,-33.07619 66.39394,-86.55238 78.0834,-106.58505 6.32787,-10.8443 14.41468,-24.62411 17.97069,-30.6218 l 6.46549,-10.90493 -5.99381,-12.90655 c -3.29659,-7.09861 -6.73337,-14.75399 -7.63729,-17.01198 -1.52967,-3.8211 -1.77404,-3.89874 -3.52848,-1.12099 -1.88298,2.98122 -19.29502,27.68296 -32.60841,46.26018 -43.99098,61.38406 -106.61338,139.39388 -171.38928,213.50261 -32.62995,37.33123 -39.79711,45.97537 -39.08077,47.1344 0.44516,0.72029 4.27592,1.3644 8.51278,1.43134 4.23686,0.067 11.02878,0.71344 15.09315,1.43663 16.67137,2.96644 16.55076,3.01598 30.77482,-12.643 z m 505.92874,5.32934 c 0.29426,-0.28323 -3.58537,-8.60361 -8.62139,-18.48975 -5.03606,-9.88614 -9.15644,-19.19049 -9.15644,-20.67634 0,-3.39911 -1.77293,-3.3883 -23.40092,0.14287 -11.35115,1.85324 -17.65333,3.60575 -17.65333,4.90903 0,1.94207 1.22531,4.83264 13.10309,30.91102 l 5.26909,11.56858 19.96243,-3.9252 c 10.97933,-2.15886 20.20318,-4.15693 20.49747,-4.44015 z m 28.49199,-3.68716 c 7.96875,-1.5806 14.48906,-3.44895 14.48956,-4.15191 5e-4,-0.70296 -4.06346,-9.02807 -9.03102,-18.50026 -4.96756,-9.47219 -9.03193,-18.42164 -9.03193,-19.88765 0,-2.79967 -0.0586,-2.79867 -27.50635,0.4671 -4.74177,0.56417 -8.62139,1.75547 -8.62139,2.64732 0,0.89185 1.73115,5.04695 3.84701,9.23355 9.39365,18.58702 14.21808,29.11064 14.21749,31.01292 -8.5e-4,2.75736 4.44628,2.58859 21.63663,-0.82107 z m 37.45037,-7.31349 c 7.43711,-1.27533 11.52567,-2.74353 11.52567,-4.1389 0,-1.18933 -2.86541,-8.24395 -6.36756,-15.6769 -3.50217,-7.43293 -6.90477,-16.00027 -7.56132,-19.03851 -1.14991,-5.32122 -1.4136,-5.48414 -7.18034,-4.43679 -3.29262,0.59802 -10.2357,1.5238 -15.42906,2.05729 -5.19336,0.53349 -9.44248,1.65861 -9.44248,2.50028 0,0.84167 2.32886,6.0966 5.17525,11.67765 2.84639,5.58105 6.28322,12.36428 7.63741,15.07386 5.94504,11.89546 7.21983,13.95845 8.62535,13.95845 0.82027,0 6.67797,-0.8894 13.01708,-1.97643 z m 37.8004,-5.53374 c 0,-0.5178 -5.45811,-6.98385 -12.12909,-14.369 -6.671,-7.38511 -14.42086,-16.01391 -17.22193,-19.17508 l -5.09281,-5.7476 4.25952,10.67411 c 2.34274,5.87075 6.1641,14.92321 8.49192,20.11658 l 4.23241,9.44248 h 8.72998 c 4.8015,0 8.73,-0.42367 8.73,-0.94149 z M 711.8947,523.52199 c 0,-1.14867 -4.04205,-8.70416 -8.98233,-16.78997 -4.94029,-8.08583 -9.43288,-16.75272 -9.98351,-19.25975 -0.9127,-4.1555 -1.65111,-4.55824 -8.35735,-4.55824 -4.0459,0 -7.04346,0.55423 -6.66123,1.23163 10.92187,19.35577 21.65966,37.82618 22.91226,39.41208 2.13875,2.70785 11.07216,2.679 11.07216,-0.0358 z m 26.80241,-2.34364 c 7.54665,-0.93375 7.86776,-1.17975 6.85674,-5.25299 -0.58337,-2.35034 -3.21461,-9.66701 -5.84715,-16.25927 -2.63255,-6.59226 -5.13135,-13.88795 -5.55291,-16.21264 -0.42155,-2.3247 -1.06056,-4.52083 -1.42001,-4.88028 -0.70381,-0.70382 -32.80833,2.62536 -33.67501,3.49206 -0.28692,0.2869 4.51598,9.86157 10.6731,21.27702 11.0357,20.46043 11.26478,20.74158 16.12129,19.78555 2.70958,-0.53339 8.48936,-1.41065 12.84395,-1.94945 z m 39.98661,-6.79354 c 1.69628,-0.94929 0.55119,-4.71144 -5.10061,-16.75799 -4.00836,-8.54363 -7.73829,-17.64489 -8.2887,-20.22501 -0.97351,-4.56337 -1.21119,-4.66079 -8.72582,-3.57704 -16.99479,2.45099 -17.42624,3.01531 -11.79442,15.42672 1.78655,3.93722 3.24828,8.53606 3.24828,10.21964 0,1.6836 1.6627,6.48841 3.69489,10.67735 l 3.69488,7.61628 10.54209,-1.07794 c 5.79813,-0.59285 11.52637,-1.62877 12.72941,-2.30201 z m 39.54151,-4.55993 c 10.48292,-1.28157 10.56466,-1.84027 2.85374,-19.50422 -3.15015,-7.21627 -5.73886,-14.60603 -5.75269,-16.4217 -0.0586,-7.70424 -1.41509,-8.01645 -22.93171,-5.27821 -11.02149,1.40262 -20.39695,2.90808 -20.83436,3.34549 -0.43739,0.43739 1.02674,4.74227 3.25365,9.56641 2.2269,4.82413 6.16229,13.81259 8.74534,19.97438 l 4.69641,11.20323 10.67411,-0.91569 c 5.87076,-0.50364 14.55374,-1.39001 19.29551,-1.96969 z m 35.60466,-6.17591 c 6.26049,-1.09778 11.62506,-2.72309 11.92129,-3.61178 0.29623,-0.88869 -2.03686,-5.65918 -5.18464,-10.60111 -3.1478,-4.94192 -7.60647,-12.92631 -9.90819,-17.7431 l -4.18493,-8.75778 -12.6872,1.15719 c -6.97797,0.63645 -12.93369,1.37538 -13.23497,1.64208 -0.30125,0.26669 0.99196,3.96564 2.87381,8.2199 1.88185,4.25424 3.42156,8.77896 3.42156,10.05492 0,1.27596 1.47795,5.21694 3.28433,8.75776 1.80639,3.54082 3.28434,7.94523 3.28434,9.7876 0,3.95627 3.13515,4.12433 20.4146,1.09432 z m 37.06135,-5.28131 c 0,-1.009 -17.42493,-23.77678 -24.72941,-32.31199 -3.28269,-3.83579 -5.0107,-4.6537 -7.89663,-3.73775 -3.61369,1.14694 -3.63112,1.26805 -0.79773,5.54726 1.59313,2.40611 4.843,8.06962 7.22195,12.5856 10.04724,19.07275 9.84292,18.86317 18.40152,18.87458 4.29016,0.005 7.8003,-0.42526 7.8003,-0.9577 z M 686.77079,476.44704 c 4.33462,-0.84729 11.39127,-2.00103 15.68144,-2.56389 9.6569,-1.26695 9.71624,-1.93502 2.05271,-23.10587 -3.16117,-8.73288 -5.74759,-18.42603 -5.74759,-21.54034 0,-4.62965 -0.52413,-5.50355 -2.8738,-4.79163 -12.24124,3.70895 -16.87948,3.89155 -20.78649,0.81829 -3.13984,-2.46979 -6.68864,-3.10986 -17.24244,-3.10986 -7.30889,0 -13.28888,0.55919 -13.28888,1.24263 0,0.68345 3.92476,8.25796 8.7217,16.83225 4.79694,8.57429 11.48389,20.5777 14.85989,26.67425 3.37603,6.09656 7.17413,11.08465 8.44027,11.08465 1.26613,0 5.84857,-0.69322 10.18319,-1.54048 z m 54.27244,-9.16872 c 2.93537,-0.51414 5.33705,-1.67258 5.33705,-2.57428 0,-0.90171 -2.69165,-8.81222 -5.98145,-17.57893 -5.57839,-14.86532 -6.39772,-17.85916 -6.94633,-25.38192 -0.25228,-3.45929 -9.4013,-3.9146 -20.83061,-1.03668 -7.65786,1.92828 -8.38029,3.30769 -5.58405,10.66237 0.94151,2.47633 3.11563,9.72946 4.83137,16.11806 1.71573,6.3886 4.24303,14.29656 5.6162,17.57328 l 2.49669,5.95766 7.86203,-1.40237 c 4.32412,-0.77131 10.26372,-1.82306 13.1991,-2.33719 z m 30.88132,-4.07033 h 7.06986 l -1.50283,-5.33705 c -0.82654,-2.93539 -2.17042,-6.81501 -2.98636,-8.62139 -5.93438,-13.13772 -9.97487,-23.87434 -10.91257,-28.99738 -0.77573,-4.23821 -2.14198,-6.28666 -4.63994,-6.95679 -7.02127,-1.88362 -11.44654,-0.91716 -15.41687,3.36689 l -4.04215,4.36154 4.26438,10.8692 c 2.34541,5.97804 4.26438,11.70885 4.26438,12.7351 0,1.02627 1.60606,6.0628 3.56901,11.19233 3.41201,8.91611 3.78225,9.28375 8.41612,8.35698 2.66592,-0.53319 8.02855,-0.96943 11.91697,-0.96943 z m 29.92339,-4.013 c 0.39299,-0.39299 -2.98309,-8.45511 -7.50237,-17.91584 -4.51929,-9.46073 -8.71412,-20.14443 -9.32186,-23.74157 -0.97482,-5.76998 -1.7128,-6.62943 -6.26604,-7.29772 -9.05791,-1.32941 -10.48716,2.16942 -5.74231,14.05716 4.15112,10.40023 8.51736,22.30182 11.77155,32.0871 1.78299,5.36144 1.99964,5.46895 9.08653,4.5089 3.99298,-0.54093 7.58151,-1.30504 7.9745,-1.69803 z m 23.77434,-2.23978 6.16543,-1.13698 -9.86031,-17.52799 c -5.42318,-9.64038 -9.86031,-18.60235 -9.86031,-19.9155 0,-1.31314 -0.92372,-3.12065 -2.05272,-4.01666 -2.8483,-2.26053 -12.95401,-3.69625 -16.41051,-2.33146 -2.61178,1.03127 -2.43191,2.04102 2.0527,11.52375 2.70345,5.71642 4.91533,10.98311 4.91533,11.7038 0,0.7207 2.28659,6.19668 5.0813,12.16884 5.53109,11.81968 6.09791,12.09025 19.96909,9.5322 z m 30.78339,-2.87525 c 0,-0.33012 -4.26993,-6.72484 -9.48877,-14.21049 -5.21881,-7.48567 -11.68486,-17.09659 -14.36898,-21.3576 -2.88007,-4.5721 -5.77657,-7.43252 -7.06725,-6.97923 -1.20286,0.42245 -3.23504,0.76808 -4.51596,0.76808 -3.29441,0 -2.9045,2.43323 1.51833,9.47511 2.11602,3.36902 4.51769,7.98643 5.33706,10.26089 0.81937,2.27444 3.95945,8.55574 6.97796,13.95844 l 5.48816,9.82307 8.05973,-0.56903 c 4.43285,-0.31298 8.05972,-0.83913 8.05972,-1.16924 z M 699.2436,416.57847 c 5.23501,-1.23177 9.8761,-2.59754 10.31357,-3.03501 0.43748,-0.43748 -2.54386,-7.99011 -6.62522,-16.78361 -4.08134,-8.79353 -8.19672,-18.87037 -9.14525,-22.39299 -0.94854,-3.5226 -1.90876,-6.40474 -2.13382,-6.40474 -0.22507,0 -6.66262,-2.6056 -14.3057,-5.79023 -14.56711,-6.06963 -29.4971,-10.98146 -29.4971,-9.70425 0,1.43988 24.7419,52.34136 28.84503,59.34282 4.70491,8.02833 6.80509,8.47242 22.54849,4.76801 z m -31.68748,-3.41428 c 0,-0.42828 -2.56192,-5.78586 -5.69315,-11.90574 -5.53451,-10.81705 -12.53754,-26.88431 -19.30603,-44.29447 -2.73852,-7.04409 -4.17982,-8.72414 -8.25153,-9.61845 -2.71339,-0.59596 -12.268,-3.52002 -21.23245,-6.49794 -8.96446,-2.97789 -16.07627,-4.83884 -15.80404,-4.13544 0.27223,0.70341 9.7241,18.36808 21.00414,39.25483 l 20.50919,37.97591 h 14.38694 c 7.91281,0 14.38693,-0.35041 14.38693,-0.7787 z m 62.64744,-2.50565 c 6.01729,0 6.45669,-0.29791 5.44936,-3.69488 -0.60263,-2.03218 -4.52229,-10.49152 -8.71036,-18.79853 -7.17678,-14.23505 -13.41822,-20.88403 -15.87396,-16.91053 -0.51888,0.83955 -3.13168,1.0888 -5.80623,0.55389 -2.67458,-0.53492 -4.86285,-0.56287 -4.86285,-0.0621 0,0.50075 3.39179,8.16763 7.53731,17.03751 4.14551,8.86987 8.22017,17.86485 9.05474,19.98887 1.01193,2.57523 2.37525,3.53265 4.09221,2.8738 1.4161,-0.54343 5.52001,-0.98803 9.11978,-0.98803 z m 30.66657,-5.91629 5.45791,-0.84655 -4.33074,-5.67788 c -2.38188,-3.12282 -5.76735,-8.9256 -7.52322,-12.89505 l -3.19249,-7.21718 -10.25097,-0.62119 c -5.63801,-0.34168 -10.48181,-0.48407 -10.76397,-0.31646 -0.28216,0.16763 2.80553,6.91238 6.86153,14.98838 8.17302,16.27342 6.3157,15.28883 23.74195,12.58593 z m 60.88338,-1.67473 c 0.35998,-0.30819 -1.19922,-3.34487 -3.46486,-6.74822 -2.26565,-3.40334 -5.71576,-8.88572 -7.66694,-12.18308 -1.95118,-3.29735 -4.70155,-6.438 -6.11193,-6.97923 -4.21678,-1.61812 -12.14873,-1.11388 -12.14873,0.77232 0,0.96597 2.26798,7.20427 5.03996,13.86286 4.61223,11.07909 5.48327,12.15838 10.26356,12.71747 4.93297,0.57692 12.65365,-0.21334 14.08894,-1.44212 z m -29.66433,-0.41707 c 1.74013,-1.10304 1.14832,-3.45543 -2.8738,-11.42321 -2.78585,-5.51874 -5.06519,-11.08457 -5.06519,-12.36848 0,-3.45314 -4.37326,-4.51001 -6.76035,-1.63374 -1.4959,1.80243 -4.00058,2.26301 -8.98619,1.65242 -10.67471,-1.30731 -10.71665,-1.68393 2.12227,19.05429 3.54213,5.7215 4.36406,6.15635 11.59215,6.133 4.27886,-0.0132 8.76584,-0.65025 9.97111,-1.41428 z M 763.45731,358.6805 c -3.14957,-6.91128 -5.48237,-13.74681 -5.18399,-15.19008 0.41626,-2.01347 -3.28054,-3.84643 -15.88637,-7.87678 -9.03587,-2.88898 -16.69368,-4.98784 -17.01737,-4.66416 -0.32368,0.32368 4.16054,8.95285 9.96494,19.1759 11.37603,20.0361 12.15465,20.66029 26.14241,20.95739 l 7.70687,0.16373 -5.72649,-12.56598 z m 36.04134,9.68963 c 0.41952,-0.67879 -2.09251,-6.10774 -5.58229,-12.06431 l -6.34504,-10.83017 -11.78512,-1.94628 c -6.48184,-1.07044 -11.97834,-1.73806 -12.21447,-1.48357 -0.23613,0.25447 2.7276,6.00501 6.58604,12.77897 6.98418,12.26151 7.05096,12.32061 15.01986,13.28991 12.69719,1.54442 13.51536,1.55903 14.32102,0.25545 z m -415.51429,-4.91626 c 4.04246,-4.99018 2.28978,-11.04472 -2.73467,-9.44679 -1.94512,0.6186 -5.56877,1.509 -8.05255,1.97868 -4.67263,0.88357 -5.15634,2.03005 -3.48592,8.26243 0.78767,2.93878 2.01795,3.59734 6.13573,3.28434 3.00217,-0.2282 6.39637,-1.92943 8.13741,-4.07866 z m 350.90073,2.37121 c 0,-1.17536 -4.1485,-9.11936 -9.21888,-17.65332 -5.0704,-8.53397 -9.91544,-17.36373 -10.76679,-19.62172 -1.10595,-2.93325 -5.50689,-6.03317 -15.41367,-10.85706 -7.62618,-3.71339 -13.8549,-6.29981 -13.84165,-5.7476 0.0132,0.55224 6.21733,12.44902 13.78683,26.4373 13.67598,25.27298 13.80778,25.44533 20.91355,27.34514 9.76188,2.60994 14.54061,2.64192 14.54061,0.0972 z m -32.87559,-6.48436 c -0.0177,-1.12898 -5.92636,-12.39837 -13.13036,-25.04309 -7.20402,-12.64471 -13.10135,-24.2529 -13.10519,-25.79598 -0.005,-2.27984 -22.02959,-18.03443 -44.04681,-31.50844 -2.5741,-1.57529 2.25689,8.1591 19.55314,39.39931 7.04913,12.732 13.99838,26.10269 15.4428,29.71264 2.54162,6.35215 3.0865,6.69807 16.91969,10.74127 17.01562,4.97336 18.40857,5.16254 18.36673,2.49429 z m -307.05361,-9.44247 c 0,-0.9032 -0.32587,-1.64217 -0.72416,-1.64217 -0.39829,0 -1.18088,0.73897 -1.73909,1.64217 -0.55821,0.90319 -0.23234,1.64217 0.72416,1.64217 0.95651,0 1.73909,-0.73898 1.73909,-1.64217 z m -22.50219,-2.05271 c 3.92682,-2.92256 2.0586,-14.36899 -2.34521,-14.36899 -2.58859,0 -3.06949,1.28636 -3.06949,8.21085 0,8.58744 0.85068,9.55492 5.4147,6.15814 z m 284.12081,-3.90406 c -0.56403,-1.46984 -4.69469,-9.04435 -9.17924,-16.83225 -4.48456,-7.78789 -13.12083,-24.55838 -19.19172,-37.26778 l -11.03798,-23.10796 -25.72231,-17.73618 c -14.14726,-9.7549 -34.03115,-23.8558 -44.1864,-31.3353 -10.15526,-7.47951 -18.64831,-13.42484 -18.87343,-13.21184 -0.41048,0.38838 28.1446,55.70344 50.85379,98.51066 l 12.12444,22.8548 30.25077,9.66874 c 16.6379,5.3178 30.57944,9.99742 30.98116,10.39914 1.93775,1.93778 4.91281,0.48644 3.98092,-1.94203 z M 395.74499,339.7122 c 7.19088,-3.49361 7.40966,-3.81666 6.39475,-9.44248 -0.57797,-3.20381 -1.18945,-6.00013 -1.35883,-6.21405 -0.97277,-1.22866 -19.75516,7.49169 -19.61924,9.1089 0.0903,1.07478 0.27505,3.8016 0.41053,6.05958 0.31323,5.22048 4.15938,5.35294 14.17279,0.48805 z m 20.70655,-18.00633 c 1.28268,-2.39671 1.01387,-3.00373 -1.32129,-2.98371 -5.03694,0.0432 -7.48179,2.55509 -6.25354,6.42497 0.92993,2.93 1.57106,3.21386 3.54972,1.57171 1.32815,-1.10226 3.13945,-3.35809 4.02511,-5.01297 z m -38.32789,1.20379 c 4.74176,-1.55893 8.62139,-3.03425 8.62139,-3.27848 0,-0.24423 -0.81969,-2.79545 -1.82154,-5.66935 -1.2777,-3.66523 -2.62599,-4.99025 -4.51597,-4.43804 -1.48192,0.43299 -5.47375,1.27992 -8.8707,1.88208 -3.39695,0.60213 -6.50988,1.63456 -6.9176,2.29428 -1.42784,2.31029 1.2367,13.38294 3.05943,12.7136 1.00297,-0.36832 5.70322,-1.94516 10.44499,-3.50409 z m 30.28536,-9.96023 c 5.55692,-2.25799 11.45405,-4.10544 13.10473,-4.10544 2.46222,0 3.00122,-1.32715 3.00122,-7.38976 0,-5.18042 -0.67605,-7.38977 -2.26121,-7.38977 -2.53473,0 -27.42194,9.66237 -29.37109,11.40322 -2.01971,1.80386 0.6249,11.58717 3.13221,11.58717 1.25985,0 6.8372,-1.84744 12.39414,-4.10542 z m -41.39243,-10.26357 c -0.0442,-5.66373 -2.04576,-10.26356 -4.46605,-10.26356 -1.7531,0 -2.17779,1.06524 -1.47308,3.69488 0.5446,2.03219 1.00029,4.98809 1.01262,6.56868 0.0132,1.58059 1.13088,2.8738 2.48567,2.8738 1.35479,0 2.45318,-1.29321 2.44084,-2.8738 z m 20.10649,-4.42731 c 5.66284,-2.20921 12.41354,-4.46162 15.00155,-5.00535 4.2845,-0.90016 4.6123,-1.4544 3.66409,-6.19548 -1.46347,-7.31733 -3.16523,-8.42538 -8.6131,-5.60819 -2.59946,1.34424 -8.96569,3.6765 -14.14713,5.18278 -9.71819,2.82515 -11.36644,5.37763 -8.42401,13.04544 1.24182,3.23614 0.3169,3.34099 12.5186,-1.4192 z m 48.88707,-2.75298 c 0,-0.79261 -1.10846,-1.44111 -2.46325,-1.44111 -1.41585,0 -2.46326,1.48205 -2.46326,3.48541 0,2.91196 0.40529,3.14908 2.46326,1.4411 1.35479,-1.12437 2.46325,-2.6928 2.46325,-3.4854 z m -15.73493,-9.00656 c 3.64016,-1.39687 3.66384,-13.78275 0.0264,-13.78275 -5.16516,0 -8.65651,3.11084 -7.80877,6.95772 1.86399,8.45846 2.3698,8.90204 7.78241,6.82503 z m 28.10361,-6.79628 5.95044,-7.79305 -3.8225,-1.0752 c -8.9574,-2.51952 -9.57011,-2.03105 -9.57011,7.62938 0,4.96756 0.33565,9.03193 0.74586,9.03193 0.41023,0 3.42356,-3.50688 6.69631,-7.79306 z m -78.61035,3.38774 c 9.12061,-2.87503 10.08059,-4.48605 7.78059,-13.05719 l -0.94029,-3.50407 -9.30085,3.60264 c -5.11547,1.98144 -9.11611,4.1125 -8.89031,4.73568 0.2258,0.62319 0.41055,3.35 0.41055,6.05958 0,5.77392 -0.31568,5.7115 10.94031,2.16336 z M 432.0019,269.8028 c -1.88277,-1.88276 -2.23177,0.67981 -1.17962,8.66106 l 1.08244,8.21084 0.50773,-7.97682 c 0.27924,-4.38724 0.0945,-8.39003 -0.41055,-8.89508 z m -36.22493,2.91346 c 4.21414,-1.80639 9.03515,-3.28435 10.71334,-3.28435 4.31605,0 4.88761,-1.7176 2.79564,-8.40129 l -1.83149,-5.85151 -10.76525,4.09414 c -5.92089,2.25179 -10.92722,4.20426 -11.12518,4.33885 -0.51083,0.34727 1.51166,12.3885 2.08082,12.3885 0.25855,0 3.918,-1.47795 8.13212,-3.28434 z m -43.5175,-4.93778 c 2.25799,-1.5756 6.69185,-3.40511 9.85302,-4.06558 3.16118,-0.6605 17.8006,-5.64986 32.53205,-11.08746 31.15949,-11.50146 33.05521,-13.10124 29.98296,-25.30218 -1.05388,-4.18532 -1.45161,-9.72464 -0.88386,-12.30958 0.56775,-2.58494 0.57082,-4.69989 0.006,-4.69989 -1.06358,0 -66.70077,24.14974 -79.68605,29.3187 -7.1439,2.84373 -7.35948,3.13664 -6.90963,9.38815 0.25539,3.54906 1.29221,10.3441 2.30403,15.1001 1.63364,7.67879 2.22362,8.52831 5.26747,7.58488 1.88528,-0.58433 5.27521,-2.35155 7.53319,-3.92714 z m 68.97114,-9.84175 c 0,-4.62448 -0.70039,-6.56868 -2.36634,-6.56868 -3.40168,0 -3.91261,1.754 -2.27213,7.8003 2.00407,7.38643 4.63847,6.68694 4.63847,-1.23162 z m 42.3144,1.20325 3.72343,-5.30868 -7.82885,-0.99823 c -9.5636,-1.21942 -10.29208,-0.85905 -10.29208,5.09149 0,3.88903 0.79544,4.84102 4.51596,5.40464 2.48378,0.37626 4.88546,0.78206 5.33706,0.90178 0.45159,0.11972 2.49662,-2.17122 4.54448,-5.091 z m -22.91485,-1.55581 c -0.437,-4.48305 -1.31937,-5.44226 -5.85165,-6.36128 -5.16181,-1.04666 -5.33704,-0.90426 -5.33704,4.33758 0,5.43822 1.48556,6.64913 8.72544,7.11227 2.3945,0.15321 2.87703,-0.84362 2.46325,-5.08857 z m 41.22302,-23.56889 c 4.77179,-6.83445 8.4176,-12.62814 8.10174,-12.87489 -0.31583,-0.24674 -12.76737,-2.8819 -27.67006,-5.85589 -14.90269,-2.97398 -27.88957,-5.70772 -28.85971,-6.07494 -1.19186,-0.45113 -1.72444,4.89971 -1.64216,16.4987 l 0.12168,17.16641 17.24279,1.08007 c 9.48353,0.59401 17.98176,1.33823 18.88495,1.65378 4.07586,1.424 5.65967,0.0954 13.82072,-11.59324 z M 367.039,222.03212 c 6.77395,-2.57856 13.72018,-5.18085 15.43607,-5.78291 3.02083,-1.0599 3.01128,-1.21047 -0.30115,-4.74665 -4.28345,-4.57278 -6.92407,-11.40334 -6.92407,-17.91058 0,-6.15177 10.12995,-17.01833 17.35364,-18.61549 8.14704,-1.80133 8.42571,-2.00844 9.42493,-7.00457 0.98611,-4.93056 4.39931,-6.85351 12.24883,-6.90082 7.43292,-0.0448 16.80638,-3.98934 16.80638,-7.07247 0,-4.39189 4.3952,-12.0976 8.56686,-15.01955 10.15182,-7.11062 29.20306,1.63316 29.20306,13.40306 0,5.04051 -4.58554,4.84929 -5.864,-0.24454 -1.23626,-4.92562 -5.08457,-8.38725 -10.84256,-9.75305 -3.28719,-0.77973 -5.61465,-0.0111 -9.26323,3.05894 -6.23616,5.24737 -7.57727,10.74228 -4.44909,18.22907 1.36411,3.26474 2.07198,6.59635 1.57308,7.40359 -1.42607,2.30745 -5.63977,1.71388 -5.63977,-0.79446 0,-1.24419 -1.18525,-3.24583 -2.63385,-4.44807 -2.21293,-1.83656 -3.41516,-1.73748 -7.52284,0.62 -5.58962,3.20802 -9.01759,3.58013 -9.85438,1.06977 -0.82525,-2.47577 -5.13372,-0.45028 -7.66543,3.60364 -1.54367,2.47181 -1.64978,3.94868 -0.37523,5.22324 3.9648,3.96478 1.95724,6.11426 -4.71415,5.04747 -3.57013,-0.57089 -8.36003,-0.56892 -10.64423,0.005 -4.48406,1.12543 -9.13934,8.43647 -9.13934,14.35321 0,5.88979 6.50932,17.84281 9.71678,17.84281 1.5703,0 9.44329,-2.58642 17.49553,-5.7476 8.05224,-3.16119 17.38602,-5.7476 20.74175,-5.7476 6.8856,0 50.51063,8.61187 57.78502,11.40713 3.93996,1.51399 5.29278,1.32841 7.96843,-1.09302 12.39735,-11.21942 9.20755,-33.66889 -6.13084,-43.14853 -6.47011,-3.99875 -7.68839,-9.93815 -3.08243,-15.02767 2.47873,-2.73899 2.47591,-3.27204 -0.0379,-7.10853 -1.49456,-2.28166 -4.17838,-4.14805 -5.96394,-4.14805 -4.92044,0 -3.92046,-2.3706 3.03247,-7.189 9.57123,-6.63285 14.20723,-16.0611 14.22962,-28.93874 0.0271,-15.636524 -5.42169,-24.300729 -19.70458,-31.332177 -9.39055,-4.622951 -11.79478,-5.143695 -20.10403,-4.354431 -5.19087,0.493057 -10.72494,1.411162 -12.2979,2.040215 -1.94696,0.778623 -3.22081,0.203379 -3.99033,-1.801945 -0.66158,-1.724069 -0.32681,-3.21355 0.80724,-3.591573 2.7682,-0.922736 2.39563,-7.80076 -0.55523,-10.249753 -1.37106,-1.137888 -4.12752,-2.152084 -6.12544,-2.253792 -3.20465,-0.163117 -3.66804,-1.166635 -3.93327,-8.517813 -0.59082,-16.374846 -9.60483,-28.491721 -24.39401,-32.791049 -9.37288,-2.724767 -19.33313,-1.511084 -29.11612,3.5479 -5.50382,2.846143 -12.14883,9.746201 -13.65116,14.175134 -1.31804,3.885637 -5.21565,3.639509 -6.50108,-0.410551 -1.22883,-3.87172 -6.13032,-4.31731 -9.03193,-0.821077 -2.59275,3.124073 -6.56869,3.195483 -6.56869,0.11799 0,-3.352133 -16.64882,-9.149933 -26.27472,-9.149933 -10.06199,0 -23.53954,4.923185 -31.53765,11.520311 -3.48491,2.874484 -8.37772,9.677477 -11.45315,15.924563 -4.61009,9.364446 -5.37507,12.664334 -5.41117,23.342458 -0.0329,9.710238 0.73992,13.876058 3.52537,19.0049 1.96206,3.612783 4.87363,8.977753 6.47012,11.922183 2.11885,3.9078 2.41274,5.84347 1.08831,7.16791 -1.32444,1.32444 -2.53887,0.41347 -4.49715,-3.3734 -8.16014,-15.779961 -32.97012,-15.109709 -39.73184,1.07337 -6.48604,15.52328 5.09122,31.63376 22.74266,31.64782 4.23686,0.004 8.16011,-0.73283 8.71831,-1.63603 0.55821,-0.90319 1.71029,-1.64216 2.56018,-1.64216 2.51712,0 1.76178,4.34517 -1.17826,6.77815 -7.72057,6.38902 -11.0645,25.13268 -6.44541,36.12826 8.93267,21.26393 28.67192,27.14362 51.79274,15.42741 4.33589,-2.19716 8.34293,-3.53535 8.90454,-2.97374 0.56158,0.56161 1.02108,4.66588 1.02108,9.12061 0,23.0974 17.39766,31.39051 44.33859,21.13529 z m 103.24471,-24.03461 c -0.17671,-0.90319 -0.38604,-4.22858 -0.46518,-7.38976 -0.1358,-5.42606 -0.48842,-5.7761 -6.30204,-6.25727 -6.47804,-0.53614 -7.43682,-1.66021 -4.18754,-4.90949 2.90009,-2.90009 10.27309,-2.39741 13.24756,0.9032 4.51665,5.01189 5.03768,10.87456 1.35923,15.29391 -1.83191,2.20087 -3.47534,3.2626 -3.65203,2.35941 z M 313.90826,173.44338 c -6.13203,-5.68298 -6.18908,-17.2688 -0.11491,-23.34294 3.60816,-3.60816 5.2863,-4.11125 11.41109,-3.42089 6.81419,0.76805 7.2332,0.57089 8.20673,-3.86154 1.14327,-5.20523 8.82077,-12.45202 14.77549,-13.94655 2.31615,-0.58133 4.08861,-2.39848 4.3894,-4.50011 0.27748,-1.93879 2.53671,-4.49604 5.02048,-5.68278 3.95455,-1.88945 4.51597,-3.09221 4.51597,-9.67457 0,-12.648651 6.00203,-19.51511 19.88335,-22.746999 8.73204,-2.033011 22.81309,7.128291 22.81309,14.842469 0,5.44579 -2.62898,5.20966 -5.58226,-0.50137 -2.67352,-5.170018 -8.77088,-8.530563 -15.47783,-8.530563 -12.32368,0 -21.20168,17.488733 -14.05652,27.689883 1.95234,2.78738 2.16926,4.27216 0.82109,5.62034 -1.34817,1.34818 -2.35283,1.31162 -3.80282,-0.13839 -2.79291,-2.79288 -7.35016,-2.44194 -8.53956,0.65761 -0.64156,1.67186 0.49339,3.80963 3.11902,5.87495 5.39468,4.24346 8.16874,9.43999 6.12848,11.48024 -0.99445,0.99446 -3.40373,-0.26988 -6.5945,-3.46064 -9.30769,-9.30769 -19.38511,-5.2606 -23.26054,9.34142 -1.81049,6.82169 -3.79244,8.63572 -5.83112,5.33706 -1.72283,-2.78758 -11.60896,-1.86128 -14.52502,1.36094 -3.8887,4.29696 -3.35693,9.69872 1.38765,14.09585 2.25798,2.09263 4.10542,4.64377 4.10542,5.66918 0,3.12374 -4.20379,2.08973 -8.79214,-2.1626 z m 147.76319,-73.12979 c -2.60976,-2.660217 -4.31655,-5.858409 -3.81878,-7.15562 1.27935,-3.333868 -3.35692,-9.291288 -7.23076,-9.291288 -1.79623,0 -5.11331,1.847441 -7.37129,4.105434 -4.97595,4.975935 -5.59831,5.05891 -5.59831,0.74644 0,-4.611977 7.19455,-11.42055 12.06797,-11.42055 5.06164,0 14.20676,8.396498 14.20676,13.043798 0,1.933372 1.47795,5.101623 3.28433,7.040562 7.34772,7.886834 2.06423,10.682394 -5.53992,2.931224 z M 298.39629,98.317787 c -3.65617,-3.656173 -1.93022,-14.451105 2.31052,-14.451105 1.58333,0 2.28755,-2.072706 2.28755,-6.732889 0,-8.750812 8.33905,-17.899662 16.31526,-17.899662 6.44058,0 13.24381,4.314871 13.24381,8.399724 0,3.724886 -2.13267,3.998578 -4.92651,0.632219 -2.36707,-2.852166 -7.78464,-3.168361 -13.97299,-0.815559 -4.01811,1.527687 -4.30015,2.275284 -3.87199,10.263559 0.42604,7.948937 0.11774,8.781702 -3.98397,10.758181 -5.27504,2.541919 -5.67576,4.635747 -1.16143,6.068537 1.80638,0.573322 3.28434,2.10107 3.28434,3.395006 0,2.874942 -6.76051,3.146072 -9.52459,0.381989 z m 63.7162,-45.430873 c 0,-3.941332 5.7266,-11.228059 9.85341,-12.537858 3.40311,-1.080113 14.77914,3.488141 14.77914,5.934831 0,0.800275 1.79935,1.455057 3.99853,1.455057 5.76297,0 12.42317,2.854137 12.42317,5.323772 0,1.495245 -2.88188,2.120727 -9.77116,2.120727 -8.69773,0 -9.87078,-0.396892 -10.67793,-3.612794 -1.75685,-6.999919 -11.73156,-6.28039 -15.6988,1.132444 -2.19413,4.099793 -4.90636,4.201414 -4.90636,0.183821 z M 237.20147,143.08514 c 1.9084,-1.2076 1.22264,-2.74732 -3.60209,-8.08773 -6.75104,-7.47259 -9.05139,-15.96306 -6.54103,-24.14259 1.57085,-5.11823 1.25883,-5.92481 -4.72518,-12.215319 -6.49244,-6.824966 -9.65816,-7.329256 -9.65816,-1.538537 0,2.305138 1.13639,3.187426 4.10544,3.187426 5.20367,0 5.32427,2.90222 0.20152,4.84989 -2.23287,0.84894 -4.70267,3.77558 -5.76998,6.8373 -1.71068,4.90726 -1.46905,5.77173 2.90165,10.38084 2.62227,2.76527 5.30178,6.87523 5.95448,9.13321 1.51708,5.24826 8.87018,13.14492 12.20963,13.11221 1.41161,-0.0138 3.62729,-0.69635 4.92372,-1.5167 z m -21.24211,-9.84269 c 0,-1.76983 -1.50753,-3.65214 -3.4081,-4.25536 -4.48511,-1.42352 -5.48105,-0.19113 -3.23585,4.00406 2.30507,4.30708 6.64395,4.4712 6.64395,0.2513 z m 19.80565,-35.537336 c 4.31858,-5.203565 14.94657,-9.308998 22.03152,-8.510423 l 6.773,0.763412 -2.03334,-9.866988 c -4.49683,-21.821312 4.44154,-42.463858 24.0753,-55.600126 3.35304,-2.24341 3.74941,-3.251928 2.25882,-5.7476 -3.11691,-5.218627 -10.91125,-4.716949 -16.56537,1.06622 l -4.96755,5.080932 -2.7365,-4.176412 c -4.37735,-6.680693 -9.63727,-4.347572 -9.94931,4.413168 -0.11725,3.292904 -1.14969,3.41316 -9.65059,1.124106 -17.64326,-4.750843 -32.09439,12.885596 -24.53322,29.940805 3.60644,8.134752 6.49151,10.96518 12.93293,12.687882 6.13973,1.642006 6.67531,4.496217 1.10459,5.886626 -9.50322,2.37193 -13.09257,10.645782 -8.44708,19.47149 3.31904,6.305644 6.429,7.416404 9.7068,3.466908 z M 510.2732,1009.1365 c -9.40544,-6.5879 0.39686,-15.49124 17.06646,-15.50142 11.00227,-0.006 18.69587,4.05613 18.69587,9.87302 0,5.5616 -6.31555,8.1847 -19.70604,8.1847 -8.57112,0 -13.53487,-0.7903 -16.05629,-2.5563 z m 29.54073,-3.731 c 1.72961,-1.7529 1.53388,-2.5744 -1.07148,-4.4973 -3.22487,-2.38021 -19.57661,-3.28167 -24.59491,-1.35596 -3.4477,1.32306 -3.30305,5.00856 0.27623,7.03856 4.04698,2.2953 22.82059,1.4188 25.39016,-1.1853 z m 32.97749,3.6692 c -3.79972,-1.3942 -9.23871,-5.1889 -12.08665,-8.4325 -4.3651,-4.97159 -5.04903,-6.85947 -4.35622,-12.02475 l 0.82185,-6.12728 -9.26231,-1.82773 c -13.15796,-2.59643 -20.28915,-7.25671 -19.63111,-12.82905 0.6801,-5.75921 7.41031,-7.65099 18.89041,-5.30988 10.01759,2.04287 16.93086,6.91265 16.93488,11.92912 0.004,3.39928 0.79213,3.59633 16.00056,3.99375 29.12797,0.76117 44.75687,7.56468 44.75687,19.48341 0,4.13571 -1.19294,6.17801 -5.32873,9.12291 -4.64406,3.3069 -7.54533,3.8434 -22.57984,4.1757 -12.28325,0.2715 -19.2406,-0.3487 -24.15971,-2.1537 z m 43.4132,-7.729 c 2.19169,-2.19176 2.44308,-3.50995 1.086,-5.69485 -2.86788,-4.61734 -9.02177,-6.75458 -26.47167,-9.19352 -16.55002,-2.31319 -24.9758,-1.96744 -26.97673,1.10698 -1.95007,2.99628 2.24856,9.14047 8.16456,11.94779 12.00662,5.6975 39.20554,6.8259 44.19784,1.8336 z m -56.1467,-24.24193 c 2.92797,-4.73757 -15.34482,-12.95913 -24.76861,-11.14427 -6.69118,1.2886 -3.23435,5.49273 7.46189,9.07497 12.24183,4.09987 15.78959,4.52407 17.30672,2.0693 z m -81.87684,18.24099 c -11.96882,-0.99993 -15.78343,-2.7009 -15.87107,-7.07702 -0.0132,-0.69066 2.37652,-2.76314 5.31191,-4.60549 4.27828,-2.68521 6.80303,-3.12584 12.72681,-2.22112 4.06438,0.62074 11.45414,1.21527 16.4217,1.32117 7.929,0.16902 9.09359,0.62519 9.53679,3.73558 0.66349,4.65623 -5.68744,10.48518 -11.07806,10.16757 -2.31348,-0.13631 -9.98511,-0.73063 -17.04808,-1.32069 z m 23.51586,-5.82125 c 1.75069,-2.10944 1.22207,-2.46325 -3.68021,-2.46325 -3.14849,0 -9.52536,-0.72081 -14.17083,-1.60181 -5.95574,-1.12948 -9.65353,-1.05176 -12.54042,0.26359 -8.77235,3.99696 -4.3236,5.79843 15.00033,6.07424 10.03704,0.14319 13.85376,-0.42035 15.39113,-2.27277 z m -22.45181,-13.8569 c -12.9333,-5.87215 -15.47859,-17.18662 -5.16814,-22.97371 3.68419,-2.06788 6.88198,-2.16666 20.65589,-0.63802 17.08102,1.89563 25.40555,4.94158 28.30334,10.35612 2.73537,5.11109 0.30347,10.99792 -5.72507,13.85865 -7.89924,3.74843 -29.22611,3.41057 -38.06602,-0.60304 z m 38.45213,-5.02805 c 0.23177,0 0.42139,-1.45195 0.42139,-3.22657 0,-1.77461 -1.48912,-4.02352 -3.30917,-4.99756 -4.78477,-2.56073 -31.27004,-6.16872 -36.10291,-4.91816 -5.39148,1.39509 -5.30816,6.14227 0.17974,10.23959 4.93141,3.68183 25.61262,6.27735 33.4739,4.20103 2.70362,-0.71408 5.1053,-1.29833 5.33705,-1.29833 z m 29.98044,-14.11082 c -1.35479,-0.32587 -10.10291,-1.24955 -19.44024,-2.0526 -13.5573,-1.16601 -17.64263,-2.12574 -20.28145,-4.76456 -2.63332,-2.63331 -2.94897,-3.96862 -1.55418,-6.57479 2.87163,-5.36571 12.66074,-9.10548 20.50568,-7.83386 3.74646,0.60728 13.64844,1.46743 22.00438,1.91144 12.01551,0.63846 15.49493,1.38468 16.63819,3.56833 2.15731,4.12051 -0.6457,9.70848 -6.73098,13.41863 -5.34588,3.25938 -6.37387,3.47412 -11.1414,2.32741 z m 10.67411,-8.87957 c 2.87313,-3.17475 2.86792,-3.2923 -0.15601,-3.52305 -1.72058,-0.13138 -5.34524,-0.10248 -8.05482,0.064 -2.70958,0.16647 -8.62139,-0.82657 -13.13737,-2.20677 -4.51596,-1.38018 -10.44809,-2.51744 -13.1825,-2.52722 -5.01056,-0.0179 -12.27112,3.85604 -12.27112,6.54738 0,2.41596 13.07902,4.56796 28.89399,4.75418 12.9825,0.15288 15.32423,-0.25362 17.90784,-3.10848 z m -1.64217,-13.41156 c -5.26434,-2.9116 -10.67411,-8.32747 -10.67411,-10.68614 0,-1.19736 1.51869,-3.6957 3.37486,-5.55187 3.0089,-3.0089 4.65606,-3.26125 15.19007,-2.32713 16.04303,1.42261 21.64652,3.3671 23.88956,8.29002 2.41707,5.30493 2.48938,4.93097 -1.70988,8.84318 -2.92705,2.72697 -5.74589,3.33906 -15.19007,3.29838 -6.37785,-0.0275 -13.07405,-0.86737 -14.88043,-1.86644 z m 26.14041,-4.00691 c 3.91063,-1.50065 3.12588,-4.80399 -1.65917,-6.98422 -6.40457,-2.91811 -27.84747,-4.3966 -29.3155,-2.0213 -1.6942,2.7413 1.90161,6.47522 7.91458,8.21859 6.04591,1.7529 19.3589,2.2072 23.06009,0.78693 z M 869.12579,298.83266 c -15.29977,-3.56211 -29.1567,-14.22234 -35.33884,-27.18643 -2.29153,-4.80539 -3.29777,-5.4776 -6.98669,-4.66739 -2.37027,0.5206 -6.20315,0.22661 -8.51752,-0.6533 -3.51759,-1.33739 -4.82144,-0.94679 -7.94765,2.38089 -7.0985,7.55601 -16.92356,11.00849 -29.33258,10.30732 -10.1161,-0.57161 -11.96321,-1.24687 -18.85218,-6.89186 -8.62796,-7.06997 -13.55243,-15.47561 -14.44726,-24.66021 -0.59919,-6.14997 -0.72398,-6.25342 -8.10396,-6.71795 -6.78583,-0.42712 -7.91006,0.0478 -11.8752,5.01719 -4.89729,6.13759 -14.76602,9.92651 -21.4714,8.24356 -4.19696,-1.05337 -15.70601,-11.75759 -15.70601,-14.60769 0,-0.78869 -2.4889,0.10432 -5.53087,1.9843 -7.05036,4.35735 -18.16139,4.48003 -25.05473,0.27666 -10.54522,-6.43022 -12.53429,-24.98215 -3.69565,-34.46929 4.64566,-4.98655 14.08374,-8.84926 18.75651,-7.67648 2.9703,0.74551 4.38723,-0.20728 7.06985,-4.75398 2.11031,-3.5767 5.06263,-6.06153 7.95768,-6.69761 8.11351,-1.7827 8.70806,-2.20679 8.70806,-6.21158 0,-9.16079 12.72333,-18.52695 22.9469,-16.89212 5.62979,0.90023 6.20935,0.5876 8.73709,-4.71313 1.61939,-3.39591 4.30779,-6.07902 6.6901,-6.67694 3.68413,-0.92465 3.86347,-1.4318 2.39155,-6.76268 -3.42395,-12.40051 3.84131,-28.66071 16.12962,-36.09929 4.69835,-2.84409 8.78813,-3.83293 15.87872,-3.83917 10.93679,-0.01 14.36104,1.40643 22.72581,9.39802 l 6.00151,5.73378 3.16706,-7.15956 c 5.54073,-12.52558 18.55068,-21.081709 32.09689,-21.108854 5.92734,-0.01232 18.85024,6.617954 24.49084,12.564534 4.87422,5.13862 9.52959,15.01496 9.52959,20.21696 0,2.75214 1.07946,3.34625 6.15814,3.38932 6.86974,0.0583 9.93268,1.90429 14.3051,8.62164 2.77668,4.26584 3.1692,4.39147 5.92602,1.89658 4.36619,-3.95134 14.48042,-7.13222 22.93842,-7.21402 10.70421,-0.10358 20.93932,5.57091 27.34991,15.16305 8.73543,13.07079 9.0962,26.5284 1.02979,38.41489 l -4.16412,6.13618 3.46155,2.80299 c 1.90383,1.54164 3.46152,4.34722 3.46152,6.23463 0,2.39134 1.04544,3.43166 3.44856,3.43166 5.42719,0 14.61532,10.22049 14.61532,16.25748 0,4.91267 0.24987,5.09073 7.14338,5.09073 9.62466,0 19.85739,7.3645 24.35254,17.52652 2.87604,6.50173 3.05414,8.41424 1.40384,15.07649 -4.12948,16.67103 -14.17784,25.05609 -30.72107,25.63584 -4.84018,0.16962 -9.96056,1.37953 -11.58457,2.73734 -10.84791,9.06988 -26.28429,7.90601 -38.2254,-2.88206 -6.23055,-5.62891 -6.37789,-5.66965 -8.19908,-2.26675 -2.65377,4.95863 -18.02147,14.34098 -25.5914,15.62418 -3.53888,0.59989 -7.5428,1.31351 -8.89759,1.5858 -1.35479,0.2723 -5.23743,-0.15075 -8.6281,-0.94019 z m 28.36155,-11.35086 c 3.26695,-1.66668 6.99892,-4.31254 8.29329,-5.87971 1.29437,-1.56717 4.46543,-4.13727 7.04678,-5.7113 l 4.69338,-2.8619 6.93086,7.23345 c 6.20331,6.47414 7.71507,7.23345 14.40157,7.23345 9.36674,0 18.6861,-3.78759 19.8,-8.04715 0.76044,-2.90792 1.45554,-3.065 6.58964,-1.48931 17.74818,5.44706 34.55814,-10.68041 29.32793,-28.13724 -1.22335,-4.08319 -4.4594,-8.62969 -8.76638,-12.31628 -6.15881,-5.27174 -7.77997,-5.8438 -16.56029,-5.8438 -8.62557,0 -9.5985,-0.32702 -8.55004,-2.87381 2.82789,-6.86909 2.61326,-8.61006 -1.57814,-12.80145 -3.22168,-3.22169 -5.30912,-4.07171 -7.96759,-3.24443 -9.01791,2.80624 -10.99201,2.87842 -10.99201,0.40186 0,-1.36346 1.10847,-2.90435 2.46326,-3.42424 2.9558,-1.13426 3.23463,-6.18876 0.49265,-8.93073 -1.08383,-1.08384 -5.14821,-1.97061 -9.03193,-1.97061 -3.88373,0 -7.06133,-0.57093 -7.06133,-1.26875 0,-0.69779 2.64054,-2.69076 5.86788,-4.42878 13.82171,-7.44348 18.41536,-28.5453 9.03343,-41.49669 -12.11388,-16.72272 -38.76871,-15.52169 -50.97828,2.297 -2.06716,3.01682 -5.14117,5.48514 -6.83114,5.48514 -3.70426,0 -3.96879,-2.13847 -0.60941,-4.92651 3.28012,-2.72227 3.13491,-11.3155 -0.25451,-15.06077 -4.01141,-4.43256 -11.47192,-3.80876 -16.26191,1.35971 -5.22882,5.642 -6.35736,4.2619 -4.32129,-5.28461 2.003,-9.39144 -0.96723,-21.25324 -6.66138,-26.6026 -4.90394,-4.60701 -14.63306,-8.60335 -20.94492,-8.60335 -12.06992,0 -24.54777,9.25212 -28.9361,21.45568 -4.30861,11.98185 -6.31562,12.97401 -10.32942,5.10633 -4.60385,-9.02432 -12.27841,-13.43142 -23.33077,-13.39764 -23.504,0.0718 -34.77201,20.88186 -22.79655,42.10122 2.70958,4.8011 4.92651,9.10998 4.92651,9.57525 0,2.21104 -4.37523,0.41529 -8.41275,-3.45289 l -4.48703,-4.29885 -4.12413,4.12413 c -3.75129,3.75129 -3.95986,4.6594 -2.30696,10.04505 2.29622,7.48171 0.71074,9.15856 -4.2516,4.49669 -9.59899,-9.01779 -25.9866,-3.85555 -27.01645,8.51045 -0.34714,4.16833 0.64821,8.03512 3.08203,11.9731 5.22911,8.46088 1.75159,11.01302 -4.43731,3.25656 -6.80363,-8.5269 -15.64747,-7.40172 -17.57502,2.23605 -0.96152,4.80759 -1.21153,4.92962 -8.15103,3.97846 -5.0462,-0.69166 -8.71559,-0.17637 -12.43291,1.74593 -14.60062,7.55027 -8.96824,30.52588 7.4678,30.46257 9.1771,-0.0353 14.03043,-3.20489 18.13022,-11.84021 3.51887,-7.41179 9.25434,-12.54231 10.95146,-9.79634 0.45498,0.73619 -0.60378,3.50934 -2.35279,6.16257 -10.06807,15.2732 6.32244,31.91138 21.4309,21.75471 3.41268,-2.29417 6.38589,-6.01764 7.31882,-9.16559 1.709,-5.7667 4.77507,-6.87473 7.17192,-2.59183 1.99719,3.56878 10.98522,1.8973 16.21452,-3.01538 4.91271,-4.61526 6.23475,-3.02619 3.74889,4.50605 -2.60309,7.88749 -0.95655,19.60791 3.71176,26.42087 5.41774,7.90669 13.96614,12.07493 24.76377,12.07493 11.81406,0 16.86959,-2.02225 25.06976,-10.0281 5.89752,-5.75776 6.96812,-6.24436 8.82246,-4.01003 2.98364,3.59507 9.30854,3.15354 13.39732,-0.93523 2.80793,-2.80793 3.75243,-3.04527 4.90136,-1.23162 0.78277,1.23558 1.45075,3.355 1.48441,4.70979 0.20317,8.17604 10.76097,22.47577 20.19701,27.35534 11.01688,5.69706 28.17419,5.23424 40.57978,-1.09461 z"
       id="path905" />
  </g>
</svg>
